<?xml version="1.0" standalone="no"?>
<!DOCTYPE svg PUBLIC "-//W3C//DTD SVG 1.1//EN" "http://www.w3.org/Graphics/SVG/1.1/DTD/svg11.dtd" >
<!--
2013-9-30: Created.
-->
<svg>
<metadata>
Created by iconfont
</metadata>
<defs>

<font id="icon" horiz-adv-x="1024" >
  <font-face
    font-family="icon"
    font-weight="500"
    font-stretch="normal"
    units-per-em="1024"
    ascent="896"
    descent="-128"
  />
    <missing-glyph />
    
    <glyph glyph-name="bofang" unicode="&#58881;" d="M839.164908 338.421942 240.50216-45.694459c-32.559867-21.048385-76.198502-11.69332-76.198502 19.264762L164.303659 793.993768c0 35.897581 40.684228 38.282908 76.198502 19.23304L839.164908 429.157479C863.815318 404.092617 863.815318 363.471454 839.164908 338.421942zM227.422748 30.839635l568.042125 352.942401L227.422748 736.709087C227.422748 680.378128 227.422748 45.61106 227.422748 30.839635z"  horiz-adv-x="1024" />

    
    <glyph glyph-name="yinle" unicode="&#58946;" d="M917.297816-14.436548 785.408997-14.436548c-35.730783 0-64.798818 29.069059-64.798818 64.799842L720.610178 258.990868c0 35.728736 29.068036 64.794725 64.798818 64.794725l20.48966 0c0.704035 0 1.408069-0.039909 2.108011-0.118704 10.078543-1.089821 39.863916-0.74599 55.762001 13.728676 7.589862 6.91141 19.34765 6.362918 26.261107-1.230014 6.912433-7.590885 6.361895-19.348674-1.230014-26.261107-29.435403-26.802436-75.577303-24.036439-83.804684-23.297612l-19.587104 0c-15.229866 0-27.620058-12.388145-27.620058-27.615964l0-208.627575c0-15.230889 12.390191-27.621081 27.620058-27.621081l120.810506 0L906.21848 446.292742c0 89.938382-35.024701 174.49315-98.619088 238.08856-63.59541 63.59541-148.150178 98.619088-238.08856 98.619088L447.570595 783.00039c-89.936335 0-174.49008-35.023678-238.084467-98.619088-63.59541-63.59541-98.619088-148.150178-98.619088-238.08856l0-122.507148 114.261347 0c35.728736 0 64.795748-29.065989 64.795748-64.794725l0-208.627575c0-35.730783-29.067013-64.799842-64.795748-64.799842L93.236498-14.436548c-0.425695 0-0.851391 0.014326-1.27504 0.042979l-0.959861 0.065492c-9.749038 0.670266-17.314341 8.773827-17.314341 18.546402L73.687256 446.292742c0 50.466392 9.888208 99.432617 29.389354 145.539724 18.831904 44.524053 45.787836 84.507696 80.118735 118.838595S257.508865 771.957893 302.032918 790.79082c46.106084 19.50217 95.072309 29.389354 145.537677 29.389354l121.94126 0c50.466392 0 99.432617-9.888208 145.539724-29.389354 44.525076-18.831904 84.507696-45.787836 118.838595-80.118735 34.331923-34.3309 61.287855-74.314543 80.119759-118.838595 19.50217-46.107107 29.389354-95.073332 29.389354-145.539724l0-442.074418c0-10.203386-8.223289-18.499329-18.426675-18.58938l-7.511067-0.065492C917.40731-14.436548 917.352051-14.436548 917.297816-14.436548zM110.86704 22.742213l114.261347 0c15.22782 0 27.615964 12.390191 27.615964 27.621081L252.744351 258.990868c0 15.22782-12.388145 27.615964-27.615964 27.615964L110.86704 286.606833 110.86704 22.742213z"  horiz-adv-x="1024" />

    
    <glyph glyph-name="baocun" unicode="&#59058;" d="M1013.3 672.8l-148.7 148.5c-6.8 6.8-16 10.8-26.2 10.8-7.4 0-32.9 0-70.3 0L256 832.1c-83.7 0-145 0-154.3 0l-1 0c-20.4 0-36.7-16.3-36.7-36.7l0-885.6 0-0.8c0-20.4 16.3-36.9 36.7-36.9l117.9 0 0.8 0 648.3 0 1 0 0.8 0L986-127.9l1.1 0c20.7 0 36.9 16.5 36.9 36.9l0 736.6 0 0.5C1024 655.8 1020.9 665 1013.3 672.8zM704 768l0-256L320 512l0 256L704 768zM320-64l0 320 448 0 0-320L320-64zM960-64l-90.6 0-0.8 0-1 0L832-64 832 272.8c0 26.8-21.1 47.3-47.2 47.3L303.2 320.1c-25.9 0-47.2-20.4-47.2-47.3l0-336.7-36.7 0-0.8 0L128-63.9l0 832 128 0L256 495.3c0-26.8 21.4-47.3 47.2-47.3l417.5 0c26.2 0 47.2 20.4 47.2 47.3l0 272.7 59.3 0L960 635.6 960-64zM672 192 416 192c-17.7 0-32-14.3-32-32s14.3-32 32-32l256 0c17.7 0 32 14.3 32 32S689.7 192 672 192zM672 64 416 64c-17.7 0-32-14.3-32-32s14.3-32 32-32l256 0c17.7 0 32 14.3 32 32S689.7 64 672 64z"  horiz-adv-x="1024" />

    
    <glyph glyph-name="xinzeng" unicode="&#58951;" d="M898.004474 1.813572 798.735272 1.813572 798.735272-97.45563C798.735272-113.90301 785.401891-127.236391 768.954512-127.236391 752.507132-127.236391 739.173751-113.90301 739.173751-97.45563L739.173751 1.813572 639.904549 1.813572C623.457169 1.813572 610.123788 15.146953 610.123788 31.594333 610.123788 48.041712 623.457169 61.375093 639.904549 61.375093L739.173751 61.375093 739.173751 160.644295C739.173751 177.091675 752.507132 190.425056 768.954512 190.425056 785.401891 190.425056 798.735272 177.091675 798.735272 160.644295L798.735272 61.375093 898.004474 61.375093C914.451854 61.375093 927.785235 48.041712 927.785235 31.594333 927.785235 15.146953 914.451854 1.813572 898.004474 1.813572ZM768.954512 254.950037C752.507132 254.950037 739.173751 268.283418 739.173751 284.730798L739.173751 835.67487 415.012081 835.67487C415.013608 835.547347 415.021626 835.420969 415.021626 835.293065L415.021626 604.683072C415.021626 588.235693 401.688245 574.902312 385.240865 574.902312L155.776286 574.902312 155.776286 59.847875 515.054437 59.847875C531.501817 59.847875 544.835198 46.514494 544.835198 30.067114 544.835198 13.619735 531.501817 0.286353 515.054437 0.286353L125.995526 0.286353C109.548146 0.286353 96.214765 13.619735 96.214765 30.067114L96.214765 653.935869C96.214765 658.587013 97.282291 662.988456 99.18406 666.910353 99.90567 669.173691 101.078574 671.213673 102.737515 672.913849L309.85087 885.162094C310.512919 885.911195 311.210476 886.627842 311.943541 887.306691L314.300802 889.722368C317.094849 892.585903 320.879296 894.10854 325.120764 894.389548 327.381429 894.938583 329.7406 895.236391 332.170022 895.236391L768.954512 895.236391C785.401891 895.236391 798.735272 881.90301 798.735272 865.45563L798.735272 284.730798C798.735272 268.283418 785.401891 254.950037 768.954512 254.950037ZM344.780647 835.67487 155.776286 641.984239 155.776286 634.463833 355.460104 634.463833 355.460104 835.293065C355.460104 835.420969 355.468122 835.547347 355.46965 835.67487L344.780647 835.67487Z"  horiz-adv-x="1024" />

    
    <glyph glyph-name="search" unicode="&#58894;" d="M437.178 817.598c-206.159 0-373.288-167.129-373.288-373.286 0-206.165 167.129-373.293 373.288-373.293 206.163 0 373.292 167.129 373.292 373.293 0.001 206.157-167.128 373.286-373.292 373.286v0zM437.178 144.731c-165.188 0-299.575 134.391-299.575 299.581 0 165.181 134.386 299.574 299.575 299.574 165.187 0 299.573-134.392 299.573-299.574 0.001-165.189-134.385-299.581-299.573-299.581v0zM949.208-0.895l-165.204 165.237c-15.488-19.161-32.703-36.783-51.107-53.136l164.197-164.22c7.198-7.198 16.624-10.794 26.057-10.794 9.432 0 18.859 3.596 26.063 10.794 14.39 14.395 14.39 37.723-0.006 52.119v0zM949.208-0.895z"  horiz-adv-x="1025" />

    
    <glyph glyph-name="4fanhuidingbucheng" unicode="&#59485;" d="M732.14332 372.325739c3.335505 253.498368-203.465796 366.905533-220.14332 373.576543l0 0c0 0 0 0 0 0 0 0 0 0 0 0l0 0c-13.342019-6.67101-223.478825-123.413679-220.14332-373.576543C248.495117 345.641701 205.133554 295.609128 211.804564 212.221507c6.67101-83.387621 90.058631-140.091203 120.078174-136.755699 30.019544 3.335505 23.348534 26.684039 23.348534 26.684039l10.006515 43.361563c0 0 46.697068-70.045602 60.039087-70.045602 13.342019 0 76.716611 0 83.387621 0l0 0c0 0 0 0 0 0 0 0 0 0 0 0l0 0c6.67101 0 70.045602 0 83.387621 0 13.342019 0 60.039087 70.045602 60.039087 70.045602l10.006515-43.361563c0 0-10.006515-23.348534 23.348534-26.684039 30.019544-3.335505 113.407165 53.368078 120.078174 136.755699C818.866446 295.609128 775.504883 345.641701 732.14332 372.325739L732.14332 372.325739zM512 375.661244c-6.67101 0-83.387621 3.335505-90.058631 93.394136C425.276874 555.778506 505.32899 562.449516 512 562.449516c6.67101 0 86.723126-6.67101 90.058631-93.394136C595.387621 378.996749 518.67101 375.661244 512 375.661244L512 375.661244zM465.302932-61.28989c0-10.006515-6.67101-20.013029-20.013029-20.013029l0 0c-10.006515 0-20.013029 6.67101-20.013029 20.013029l0 93.394136c0 10.006515 6.67101 20.013029 20.013029 20.013029l0 0c10.006515 0 20.013029-6.67101 20.013029-20.013029L465.302932-61.28989 465.302932-61.28989zM535.348534-107.986958c0-10.006515-10.006515-20.013029-20.013029-20.013029l0 0c-10.006515 0-20.013029 10.006515-20.013029 20.013029L495.322476 28.76874c0 10.006515 10.006515 20.013029 20.013029 20.013029l0 0c10.006515 0 20.013029-10.006515 20.013029-20.013029L535.348534-107.986958 535.348534-107.986958zM598.723126-37.941356c0-10.006515-6.67101-20.013029-20.013029-20.013029l0 0c-10.006515 0-20.013029 6.67101-20.013029 20.013029l0 66.710097c0 10.006515 6.67101 20.013029 20.013029 20.013029l0 0c10.006515 0 20.013029-6.67101 20.013029-20.013029L598.723126-37.941356 598.723126-37.941356zM598.723126-37.941356M868.899018 896C868.899018 896 868.899018 896 868.899018 896L155.100982 896l0 0C148.429972 896 145.094467 889.32899 145.094467 882.657981c0-6.67101 3.335505-13.342019 10.006515-13.342019l0 0 713.798037 0c0 0 0 0 0 0 6.67101 0 10.006515 6.67101 10.006515 13.342019C878.905533 889.32899 875.570028 896 868.899018 896z"  horiz-adv-x="1024" />

    
    <glyph glyph-name="tuichu" unicode="&#59003;" d="M887.001194 312.652135 886.692295 312.652135 883.673738 315.525621 883.673738 400.690199 474.870904 400.690199 474.870904 463.84794 883.673738 463.84794 883.673738 551.696148 1004.630382 436.553078 1004.630382 436.220065 887.001194 312.652135ZM670.468514 835.521678 168.062845 835.521678 360.76209 740.080762C386.375425 727.394859 407.18035 696.288332 407.18035 670.62294L410.201204 104.395033C412.409429 104.908334 414.707222 105.188524 417.072001 105.188524L671.234063 105.188524 671.234063 304.613877 731.712385 304.613877 731.712385 74.949363C731.712385 58.248925 718.173662 44.710202 701.473224 44.710202L417.072001 44.710202C414.819375 44.710202 412.62761 44.963982 410.515845 45.431349L411.390866-118.611889C411.390866-127.22048 404.42897-130.503535 395.846789-125.947756L57.030771 62.014275C36.204792 73.069942 19.37536 99.164424 19.407513 120.312698L20.522917 857.494448C19.777273 860.122958 19.369618 862.893478 19.369618 865.760839 19.369618 869.030113 19.894784 872.174986 20.854399 875.123878 22.351046 886.355239 29.313709 893.146036 39.134546 894.134741 42.398462 895.340097 45.926109 896 49.608779 896L700.707675 896C717.408113 896 730.946836 882.46166 730.946836 865.760839 730.946836 863.662471 730.732483 861.614246 730.325594 859.636452 730.732483 857.658658 730.946836 855.610433 730.946836 853.512065L730.946836 563.752003 670.468514 563.752003 670.468514 835.521678Z"  horiz-adv-x="1024" />

    
    <glyph glyph-name="sixin" unicode="&#59272;" d="M834.346057 40.164001 189.678502 40.164001c-47.472198 0-85.974094 38.533618-85.974094 85.957721l0 515.746324c0 47.39238 38.501896 85.957721 85.974094 85.957721L834.346057 727.825766c47.40773 0 85.957721-38.566364 85.957721-85.957721l0-85.957721c0-10.216689-7.131421-18.723434-16.597003-20.946055-24.542976-9.849322-245.737774-135.092791-381.037273-212.608236-6.939039-3.965312-15.429411-3.75758-22.240537 0.528026L264.060583 473.278349c-9.993608 6.412037-12.967336 19.698644-6.603395 29.692253 6.395664 10.008958 19.698644 12.983709 29.692253 6.619768L512.579703 366.118747C757.821173 506.615619 844.658937 553.672354 877.324918 569.452759l0 72.415286c0 23.695678-19.314904 42.97886-42.97886 42.97886L189.678502 684.846906c-23.712051 0-42.97886-19.283182-42.97886-42.97886l0-515.746324c0-23.712051 19.266809-42.97886 42.97886-42.97886L834.346057 83.142861c23.663956 0 42.97886 19.266809 42.97886 42.97886l0 257.873162c0 11.864212 9.593496 21.521153 21.473057 21.521153s21.505803-9.657964 21.505803-21.521153l0-257.873162C920.303778 78.697619 881.753787 40.164001 834.346057 40.164001L834.346057 40.164001z"  horiz-adv-x="1024" />

    
    <glyph glyph-name="guojihuaqiehuan01" unicode="&#58940;" d="M924.371 558.219c-22.543 53.298-54.81 101.158-95.902 142.25s-88.952 73.358-142.25 95.902C631.021 819.718 572.405 831.555 512 831.555S392.979 819.718 337.781 796.371c-53.298-22.543-101.158-54.81-142.25-95.902s-73.358-88.952-95.902-142.25C76.283 503.021 64.445 444.406 64.445 384s11.838-119.021 35.184-174.219c22.543-53.299 54.81-101.158 95.902-142.251 41.092-41.092 88.952-73.358 142.25-95.901 55.198-23.347 113.813-35.185 174.219-35.185s119.021 11.838 174.219 35.185c53.298 22.543 101.158 54.81 142.25 95.901 41.092 41.093 73.358 88.952 95.902 142.251 23.346 55.197 35.184 113.813 35.184 174.219S947.717 503.021 924.371 558.219zM571.254 752.619c-5.887-17.72-36.559-5.828-49.216-5.887 9.949 3.885 24.843 9.066 33.203 15.189 1.505 1.084 1.977 2.051 2.183 2.984 5.472-0.642 10.919-1.393 16.335-2.265-5.174-2.319-10.115-5.012-14.75-8.078C563.13 753.855 567.192 753.266 571.254 752.619zM417.484 744.377c6.476-6.711 14.188 3.591 20.605 6.829 14.953 7.594 35.028 8.36 51.63 11.539-2.885-7.83-26.668-5.004-34.969-7.948-10.42-3.885-5.769-6.535-13.069-18.191 3.12 0.353 6.476-1.472 9.655-1.354l0-2.237c-7.182 0.706-14.011 4.062-15.601-4.474-9.125 13.835-15.13 12.716-24.902 0.471 9.655-5.298 19.192-12.068 11.539-21.252-9.302-11.303-14.953 2.59-5.357 8.418-8.713 3.944-15.424 10.714-22.194 2.061 2.885 0.235 6.005-1.177 8.948-1.177-1.707-2.414-3.356-10.126-4.945-11.009-3.709-2.119-17.485 2.473-21.606 3.061-10.126 1.236-20.251 0.942-30.73 0.353 1.884-12.775-12.481-0.53-17.72 2.649 9.478 9.537 21.017 5.946 31.908 4.415 9.125-1.236 22.665-1.177 23.725 10.42-10.008 2.06-14.835 1.472-19.957 9.066-0.393 0.59-0.754 1.183-1.096 1.778 17.67 7.426 35.9 13.513 54.566 18.199C415.317 752.043 414.263 747.712 417.484 744.377zM240.786 112.785C168.342 185.23 128.445 281.549 128.445 384c0 87.366 29.019 170.269 82.487 237.714 6.448-4.721 12.221-9.267 14.869-11.621 6.594-5.652 9.831-12.422 13.952-19.31 0.177-0.294 3.886-6.005 5.298-8.301 4.474-4.474 8.124-9.478 9.066-15.601 1.236-7.359-1.531-13.422-2.178-21.076-2.119-23.431 1.236-45.389 19.486-61.814 5.063-4.533 11.715-6.888 16.719-11.774 5.18-4.945 4.592-8.36 7.771-13.54 8.359-13.893 19.545-26.963 29.2-40.091 8.477-11.421 12.01-9.184 3.65 2.649-5.593 8.065-12.598 15.954-17.249 24.549-0.53 0.942-5.24 12.245-3.65 11.951 13.01-2.826 15.659-11.715 24.137-22.135 8.36-10.361 15.424-16.131 20.31-28.493 5.71-14.423 14.364-21.488 28.611-27.787 6.947-3.179 18.367-11.48 25.844-12.422 8.89-1.177 13.54 4.533 21.841 0.53 5.593-2.59 9.831-11.127 16.778-13.128 6.594-2.002 11.009 0.471 17.131-3.65 7.359-5.063 9.949-13.599 16.896-18.839 5.004-3.768 12.127-8.536 18.426-9.537 4.533-0.706 9.478 2.649 14.011 1.177 8.124-2.59 9.949-12.481 7.477-20.428-2.708-8.889-10.95-14.364-14.306-23.136-3.002-7.948-1.06-14.659-2.06-22.253-1.118-7.83-7.359 0.059-1.118-13.246 2.943-6.24 7.3-11.774 11.009-17.485 7.418-11.303 12.716-21.135 22.724-30.201 7.006-6.358 22.371-13.835 25.903-23.372 3.061-8.418 0.471-27.022-1.06-35.97-3.356-18.662-2.826-41.151-8.006-58.517-5.004-16.896-10.832-21.959-6.535-40.385 1.825-7.889 3.238-4.003 0-14.129-1.001-2.944-0.059-4.121-1.177-7.064-2.323-6.157-7.849-9.912-10.259-16.174-7.444-0.427-14.927-0.648-22.445-0.648C409.549 0.445 313.229 40.341 240.786 112.785zM783.214 112.785c-56.433-56.434-127.356-93.113-204.378-106.571-0.111 0.325-0.174 0.636-0.165 0.925 0 2.002 7.948 12.245 9.007 14.835 1.707 4.003 2.943 12.834 5.416 16.013 4.298 5.416 13.423 3.414 11.715 13.422 20.487 0.236 29.259 3.356 32.614 24.196-3.65 1.766-2.885 0.706-3.474 3.885 0.706-3.827 15.307 1.472 16.66-1.177 1.06-2.002 19.663 23.372 21.664 25.491 5.298 5.534 9.89 9.831 13.187 16.484 1.354 2.59 2.767 10.597 5.534 14.482-0.177-0.706-0.412-1.295-0.707-2.002 6.652 10.479 15.071 9.302 24.549 13.481 9.537 4.239 2.649 3.12 9.655 9.714 8.301 7.771 10.185 3.297 12.539 16.189 1.707 9.537-0.53 18.132 2.531 26.727 3.827 10.832 13.187 14.364 19.368 23.548 4.71 7.123 9.125 18.544 2.767 25.609-5.298 5.828-21.135 10.714-28.258 12.422-8.419 2.002-18.191 2.178-26.139 5.416-9.302 3.827-17.073 13.658-21.782-1.648-1.368 0.912-6.256 3.695-7.597 5.543-0.222 0.154-0.351 0.415-0.351 0.815 0-0.238 0.134-0.516 0.351-0.815 1.672-1.158 8.86 3.983 9.951 5.231-3.662-0.225-15.999-2.929-18.704-2.025 1.013-0.511 3.07-0.285 4.045-0.448-4.043-2.168-4.877-1.419-4.305 0.562-0.016 0.01-0.037 0.017-0.052 0.027 1.119 3.827 7.653 12.363 7.771 14.011 0.647 9.478-13.069 20.31-20.546 22.43-10.243 2.943-16.013 1.648-24.726 8.006-10.656 7.83-20.899 16.425-34.38 17.897-2.767 0.353-5.887-1.236-8.89-0.824-7.241 1.06-9.655 5.769-15.718 7.359-7.477 1.825-10.361-4.592-14.776-4.592-6.653 0-8.183 6.888-17.838 1.119-14.188-8.595-6.417-13.952-22.724-9.831-8.536 2.119-18.191-3.12-26.433 2.59-7.359 5.122-9.066 19.31-1.825 25.314-3.709-3.061-3.591 6.594-6.24 8.301-4.18 2.826-11.127-0.471-16.013 0.706-6.593 1.648-10.42 2.237-8.948 8.595 1.648 6.947 19.957 25.844 1.177 25.373-10.185-0.294-13.422-15.424-24.255-17.72-12.186-2.473-22.842 1.707-29.141 12.481-13.128 22.489 7.771 50.158 29.082 52.1 16.602 1.59 41.033 13.893 53.278-4.533 3.591-5.416 12.304-26.08 16.778-12.657 1.41 4.053-3.451 21.701-5.052 29.148-0.043-0.046-0.086-0.098-0.129-0.184-0.059 0.824-0.118 1.648-0.235 2.414 0.057-0.517 0.227-1.206 0.399-2.114 3.417 5.26 8.862 8.609 13.2 13.182-0.53-0.589-1.119-1.119-1.707-1.707 4.297 4.239 15.542 9.243 17.543 15.13 1.06 3.238-3.885 7.477-1.295 12.01 1.943 3.414 6.829 2.06 8.713 4.356 2.708 3.356 3.002 8.713 5.887 12.186 2.943 3.532 8.595 4.003 11.539 6.711 6.829 6.181 8.654 13.305 16.719 17.072 7.536 5.122 15.601 13.835 25.197 9.89-3.415-3.944-12.245-6.417-14.835-10.126-1.707-2.531 13.128-1.06 15.13-0.353 8.36 3.061 14.953 9.36 21.959 13.952 12.069 8.006 26.139 8.419 40.739 5.416 4.474-0.883-8.124 17.249-9.419 18.721-5.063 5.887-6.299 11.068-14.541 3.532-2.414-2.178-4.886-9.596-6.594-12.716-4.973-9.098-4.094-8.328-14.011-13.405-0.405-0.234-0.829-0.453-1.295-0.665 0.454 0.234 0.88 0.453 1.295 0.665 0.158 0.091 0.322 0.178 0.471 0.277-8.242-1.589-16.13-5.181-19.545 5.063-1.06 3.356 3.709 8.36 1.06 11.833-5.828 7.535-25.373-8.419-32.32-10.95 3.591 28.081 36.794 13.246 54.514 18.897 4.827 1.531 22.959 8.477 23.96 13.01 1.472 6.829-14.364 17.779-18.014 20.899-7.712 6.711-11.892 10.479-16.307 20.84-4.651 11.009-7.653 21.959-19.368 13.893-4.356-3.061-1.177-9.596-8.713-10.656-4.71-0.589-9.537 5.357-12.245 8.124-4.062 4.239-8.36 14.6-15.777 15.542-6.476 0.765-24.314 10.244-32.673 4.121-6.476-4.71 0.824-22.43 2.767-28.729 4.18-13.717 6.829-14.188-4.827-22.783-5.711-4.18-9.125 0.294-7.065-11.009 1.119-5.946 7.418-7.006 2.944-12.127-2.767-3.061-9.419-2.767-12.657-1.236-10.126 4.71-1.06 11.009-5.887 17.72-3.65 5.063-23.018 9.125-29.612 12.186-14.659 6.593-53.278 13.658-41.386 36.323 3.179 6.181 15.247 15.306 20.781 18.78 5.652 3.65 12.657 4.651 17.367 9.655 2.649 2.826 2.826 10.656 5.24 12.539 3.356 2.708 13.128 1.413 18.309 1.354 22.489 4.474 2.002 37.147 31.672 31.26 8.183-1.648 16.366-9.949 23.136-14.6 7.594-5.181 10.126-4.592 7.712-12.539-0.53-1.825-9.007-10.067-11.185-11.774-3.885-3.061-10.302-4.474-14.953-6.358 15.483 0 21.959 0.765 34.616-7.653 10.773-7.182 17.544-11.951 30.907-11.421-0.765 6.535-12.245 4.003-11.774 10.42 0.353 5.357 7.241-1.766 8.124-1.825 3.65-0.118 13.246-4.533 11.185 5.828-1.825 9.066-21.664 4.768-15.306 19.604 8.889 0.883 6.476-8.889 12.422-11.009 6.299-2.237 14.482 5.416 15.836 10.714-8.831 4.533-35.793 11.774-32.732 24.549 18.014-11.48 35.97-23.018 53.926-34.439-14.541-13.069 10.656-5.71 12.186-6.123 4.297-1.119 15.189-10.479 8.065-12.245-7.477-1.825-11.244 9.007-18.78 0.942 6.299-1.648 28.376-2.944 22.43-14.835-2.355-4.71-16.601-3.944-20.781-13.246 3.061 0.589 6.299-0.353 9.419 0.471-6.829-10.538 3.179-17.485 8.713-25.962 6.299-9.537 15.012-24.255 27.434-27.257 26.433-6.593 23.195 36.441 43.27 43.211 5.593 1.943 11.598 0.589 17.249 2.119 6.181 1.707 9.596 6.24 14.482 9.655 11.192 7.695 21.018 8.355 34.22 8.772 39.613-40.478 69.212-88.202 87.557-140.157-2.013-1.588-4.377-2.29-6.155-4.606-1.766-2.296-1.472-4.121-2.943-6.77-0.707-1.295-2.414-1.825-3.12-3.356-1.59-3.414 0.236-8.772 0-12.539-0.177-4.474-1.707-8.595 0.765-12.481 2.355-3.709 6.182-7.477 9.478-10.361 3.238-2.767 6.594-5.769 11.068-5.593 0.82 0.037 3.593 0.405 5.76 0.863 1.09-5.67 2.056-11.374 2.891-17.11-4.423-4.089-8.67-9.739-10.653-13.366-3.415-6.064-3.238-9.831-8.536-14.6-4.945-4.474-11.067-5.887-15.542-11.656-4.18-5.416-3.415-9.655-6.888-15.895-1.59-2.944-5.534-4.121-7.241-7.771-3.65-7.889 0.589-20.369 0.236-29.082-0.412-10.479-4.003-19.839 1.766-28.906 5.416-8.477 14.306-17.367 21.9-23.96 4.913-4.268 9.996-8.694 15.842-11.075C865.163 219.694 831.388 160.96 783.214 112.785zM668.744 273.176c0-0.059 0.118-0.059 0.118-0.059C668.802 273.117 668.744 273.117 668.744 273.176z"  horiz-adv-x="1024" />

    
    <glyph glyph-name="xiangmuguanli" unicode="&#58899;" d="M40.704 580.579l-0.219-0.333 456.083-263.324c4.57-2.646 9.765-4.044 15.021-4.044 5.42 0 10.744 1.465 15.344 4.206L979.52 578.381c14.324 8.295 19.229 26.702 10.932 41.031-2.698 4.657-6.597 8.505-11.221 11.096L528.372 891.953C523.803 894.601 518.607 896 513.35 896c-5.917 0-11.646-1.718-16.578-4.97L44.548 629.939c-14.33-8.23-19.291-26.588-11.059-40.924C35.356 585.766 37.809 582.904 40.704 580.579zM513.242 831.312l391.271-226.896L511.614 377.575 119.484 603.98 513.242 831.312zM979.231 410.07l-84.858 49.209-59.987-34.632 70.128-40.671-392.9-226.839L119.484 383.54l70.28 40.576-59.954 34.615-85.263-49.23c-14.33-8.233-19.291-26.591-11.058-40.923 1.899-3.307 4.406-6.211 7.366-8.558l-0.19-0.321L496.569 96.48c4.57-2.645 9.764-4.042 15.02-4.042 5.42 0.001 10.743 1.464 15.344 4.204L979.52 357.937c14.324 8.3 19.229 26.707 10.932 41.032C987.753 403.63 983.854 407.479 979.231 410.07zM979.231 189.631l-84.509 49.008-59.985-34.632 69.778-40.467-392.9-226.842L119.484 163.1l69.93 40.377-59.951 34.613-84.915-49.03c-14.331-8.233-19.291-26.591-11.058-40.922 1.877-3.269 4.351-6.146 7.271-8.481l-0.208-0.328 456.015-263.283c4.571-2.647 9.766-4.047 15.023-4.046 5.418 0 10.741 1.463 15.342 4.202L979.521 137.5c14.323 8.301 19.227 26.708 10.931 41.033C987.756 183.188 983.857 187.037 979.231 189.631z"  horiz-adv-x="1024" />

    
    <glyph glyph-name="zanting" unicode="&#58936;" d="M191.397656 767.805316l191.080943 0 0-768.472256-191.080943 0 0 768.472256ZM575.874261 767.805316l192.901405 0 0-768.472256-192.901405 0 0 768.472256Z"  horiz-adv-x="1024" />

    
    <glyph glyph-name="fanhui" unicode="&#58945;" d="M836.843436 579.60498c-68.77027 68.542072-160.195515 106.287745-257.434164 106.287745L166.107155 685.892725 278.930757 798.718373 245.781776 831.867354 76.371388 662.450826 245.781776 493.035322l33.148981 33.148981L166.107155 639.015068l413.301094 0c84.747149 0 164.42177-32.891108 224.341464-92.609211 59.901275-59.700707 92.888574-139.069359 92.888574-223.484957l0-23.414269c0-84.417645-32.987299-163.78425-92.888574-223.484957-59.919694-59.72322-139.588175-92.610234-224.341464-92.610234L109.520369-16.588561l0-46.877657 469.88788 0c97.238648 0 188.663894 37.747719 257.434164 106.283652 68.787666 68.563562 106.672508 159.718655 106.672508 256.69022l0 23.414269C943.515944 419.886325 905.631102 511.047558 836.843436 579.60498L836.843436 579.60498zM836.843436 579.60498"  horiz-adv-x="1024" />

    
    <glyph glyph-name="wode" unicode="&#58990;" d="M960.053977-128l-0.938726 7.791427C933.074988 95.116424 732.506765 270.320267 512 270.320267c-220.506765 0-421.074988-175.185068-447.096476-390.52884l-0.938726-7.791427L5.087896-128l1.051373 9.819075C26.509626 71.68582 159.395695 242.815592 336.814932 307.606468l5.407062 1.990099-4.843827 3.116571c-90.699718 58.332441-144.84544 155.509369-144.84544 259.989586C192.532727 744.921418 341.827729 896 512 896c170.191045 0 319.467273-151.078582 319.467273-323.334825 0-104.461443-54.145723-201.63837-144.84544-259.989586l-4.843827-3.116571 5.407062-1.990099c177.419237-64.809651 310.305306-235.920648 330.675663-425.787393L1018.912104-128 960.053977-128zM512 836.353342c-131.515529 0-260.590371-130.614352-260.590371-263.669392 0-138.912691 137.5797-242.717025 260.590371-242.717025 123.010671 0 260.590371 103.78556 260.590371 242.717025C772.590371 705.73899 643.515529 836.353342 512 836.353342z"  horiz-adv-x="1024" />

    
    <glyph glyph-name="28dianzan" unicode="&#58961;" d="M511.913993-32.016126c-28.898371 0-57.968755 12.729044-86.695112 41.455401L106.30472 331.965732C68.117588 379.61364 31.994625 424.681337 31.994625 512.064505c0 141.223585 114.905426 255.956996 255.956996 255.956996 53.15236 0 104.068537-16.169326 147.244079-46.615824 14.449185-10.148833 17.889467-30.102469 7.740635-44.551655-10.148833-14.449185-30.102469-17.889467-44.551655-7.740635-32.338653 22.877877-70.525785 34.918864-110.433059 34.918864-105.960692 0-191.967747-86.179069-191.967747-191.967747 0-61.409037 20.297665-90.135394 59.172854-138.643373l315.645893-318.742147c15.997312-15.997312 28.898371-22.361834 41.283387-22.533848 12.729044-0.172014 24.942046 6.192508 41.455401 22.705863l316.677977 319.946246c25.974131 28.210314 57.968755 75.858223 57.968755 137.439274 0 105.960692-86.179069 191.967747-191.967747 191.967747-47.991937 0-94.091718-17.889467-129.526625-50.22812l-133.998992-134.171006c-12.55703-12.55703-32.682681-12.55703-45.239711 0s-12.55703 32.682681 0 45.239711l135.031077 135.203091c48.335965 44.207626 109.745003 67.945574 173.734252 67.945574 141.223585 0 255.956996-114.905426 255.956996-255.956996 0-82.394759-41.111372-144.319839-75.686209-181.646901L598.781119 9.611288C569.882748-19.287082 540.984378-32.016126 511.913993-32.016126z"  horiz-adv-x="1024" />

    
    <glyph glyph-name="28dianzanfill" unicode="&#58964;" d="M736.048379 768.021502c-65.881404 0-128.494541-24.942046-176.314463-70.525785-4.644381-4.300353-28.726356-28.726356-47.30388-47.647909l-47.30388 47.131866c-47.819923 45.755753-110.605073 71.041828-177.00252 71.041828-141.223585 0-255.956996-114.905426-255.956996-255.956996 0-82.394759 41.111372-144.319839 76.546279-182.506971l316.849992-320.11826c25.11406-25.11406 52.980346-41.455401 86.695112-41.455401 33.714766 0 61.581052 16.341341 86.695112 41.455401l316.677977 319.946246 2.236183 2.408198c38.187133 47.647909 74.310096 92.715606 74.310096 180.098774C992.005375 653.116076 877.09995 768.021502 736.048379 768.021502z"  horiz-adv-x="1024" />

    
    <glyph glyph-name="yduixiayiqu" unicode="&#59041;" d="M64.2887 369.488495l0 28.009937c0.255827 1.961678 0.521886 3.924379 0.760317 5.886057 2.851954 23.620977 4.167926 47.549969 8.832156 70.811766 14.083763 70.287833 43.99705 133.49848 88.957031 189.413977 48.498574 60.322877 108.580974 105.307418 180.201152 134.699842 42.823318 17.572214 87.363743 28.181853 133.580345 31.546483 7.624654 0.554632 15.242146 1.221828 22.864754 1.837858l25.00858 0c2.300392-0.265036 4.594645-0.680499 6.903224-0.769526 40.860617-1.629103 80.751139-8.746198 119.567189-21.526269 82.522482-27.164686 151.679561-74.249051 206.785623-141.312446 58.518788-71.213925 91.907223-153.003719 100.166327-244.948805 3.841491-42.792619 1.497097-85.23936-6.865361-127.334083-9.788947-49.266054-27.447119-95.578846-53.03796-138.808416-42.437531-71.684646-100.252285-127.659495-173.500543-167.203116-75.265194-40.634466-155.896606-57.843406-241.327324-52.55496-43.023886 2.663666-84.96102 10.900258-125.158535 26.301016-124.022665 47.52848-211.67191 132.775003-262.123976 255.745708-16.795525 40.937364-26.38288 83.73817-29.724998 127.897925C65.613882 354.624972 64.921103 362.055199 64.2887 369.488495L64.2887 369.488495zM512.174474-8.395972c217.750349 0.727571 392.276245 176.013783 392.001999 392.370389-0.274246 217.231533-175.272909 391.646911-391.82599 391.890458-216.513172 0.242524-392.081817-175.197184-392.257825-391.964136C119.921765 167.510364 295.690978-8.360156 512.174474-8.395972L512.174474-8.395972zM512.174474-8.395972M686.870238 216.196203l-27.979238 0c-7.724938 0-13.990642 6.261611-13.990642 13.988596L644.900358 537.962557c0 7.722892 6.265704 13.990642 13.990642 13.990642l27.979238 0c7.729032 0 13.990642-6.26775 13.990642-13.990642l0-307.777759C700.859857 222.458837 694.598246 216.196203 686.870238 216.196203L686.870238 216.196203zM563.220057 428.049239c-58.490136 37.305651-133.724631 81.001849-191.854563 116.76333-28.942169 17.801435-48.226375 0.38988-48.226375-29.466102l0-260.597203c0-36.308951 19.049868-48.217165 48.402383-30.91715 63.307861 37.300534 146.037051 83.932598 200.252837 124.563994C599.17085 368.916467 591.658759 409.908066 563.220057 428.049239zM509.895571 370.949776c-30.166043-19.407002-85.557608-52.220339-114.964358-68.882833-9.683547-5.483898-15.690354-0.352017-15.690354 13.011338L379.240859 453.437465c0 12.919241 6.167466 17.626449 16.090467 12.010545 29.379121-16.644075 82.205257-49.037856 114.565269-68.653613C522.693038 389.04183 521.426185 378.364653 509.895571 370.949776z"  horiz-adv-x="1024" />

    
    <glyph glyph-name="fanhui1" unicode="&#59135;" d="M700.371228 501.474528 174.028569 501.474528l255.952416 227.506551c12.389168 11.011798 13.505595 29.980825 2.492774 42.369993-11.011798 12.386098-29.977755 13.506619-42.367947 2.492774L76.425623 495.024629c-6.960529-5.496178-11.434423-14.003945-11.434423-23.561625 0-0.013303 0.001023-0.026606 0.001023-0.039909 0-0.01228-0.001023-0.025583-0.001023-0.037862 0-0.473791 0.01535-0.946558 0.037862-1.418302 0.001023-0.016373 0.001023-0.032746 0.001023-0.049119 0.39295-8.030907 3.992941-15.595186 10.034541-20.962427l315.040163-280.028764c5.717212-5.083785 12.83533-7.580652 19.925818-7.580652 8.274454 0 16.514115 3.403516 22.442128 10.07445 11.011798 12.387122 9.896394 31.357172-2.492774 42.367947l-256.128425 227.665163 526.518668 0c109.219517 0 198.075241-88.855724 198.075241-198.075241s-88.855724-198.075241-198.075241-198.075241L354.324888 45.303045c-16.57449 0-30.011524-13.437034-30.011524-30.011524s13.437034-30.011524 30.011524-30.011524l346.046341 0c142.31631 0 258.098289 115.783003 258.098289 258.098289S842.686515 501.474528 700.371228 501.474528z"  horiz-adv-x="1024" />

    
    <glyph glyph-name="yduishangyiqu" unicode="&#58891;" d="M64.2887 369.488495l0 28.009937c0.255827 1.961678 0.521886 3.924379 0.760317 5.886057 2.851954 23.620977 4.167926 47.549969 8.832156 70.811766 14.083763 70.287833 43.99705 133.49848 88.957031 189.413977 48.498574 60.322877 108.580974 105.307418 180.201152 134.699842 42.823318 17.572214 87.363743 28.181853 133.580345 31.546483 7.624654 0.554632 15.242146 1.221828 22.864754 1.837858l25.00858 0c2.300392-0.265036 4.594645-0.680499 6.903224-0.769526 40.860617-1.629103 80.751139-8.746198 119.567189-21.526269 82.522482-27.164686 151.679561-74.249051 206.785623-141.312446 58.518788-71.213925 91.907223-153.003719 100.166327-244.948805 3.841491-42.792619 1.497097-85.23936-6.865361-127.334083-9.788947-49.266054-27.447119-95.578846-53.03796-138.808416-42.437531-71.684646-100.252285-127.659495-173.500543-167.203116-75.265194-40.634466-155.896606-57.843406-241.327324-52.55496-43.023886 2.663666-84.96102 10.900258-125.158535 26.301016-124.022665 47.52848-211.67191 132.775003-262.123976 255.745708-16.795525 40.937364-26.38288 83.73817-29.724998 127.897925C65.613882 354.624972 64.921103 362.055199 64.2887 369.488495L64.2887 369.488495zM512.174474-8.395972c217.750349 0.727571 392.276245 176.013783 392.001999 392.370389-0.274246 217.231533-175.272909 391.646911-391.82599 391.890458-216.513172 0.242524-392.081817-175.197184-392.257825-391.964136C119.921765 167.510364 295.690978-8.360156 512.174474-8.395972L512.174474-8.395972zM512.174474-8.395972M652.651902 544.830989c-58.137095-35.762505-133.38387-79.465866-191.880145-116.77868-28.442796-18.143219-35.953863-59.141982-8.577353-79.662341 54.223972-40.638559 136.970558-87.270623 200.281489-124.577297 29.359678-17.306154 48.41364-5.39794 48.41364 30.91715L700.889533 515.363863C700.889533 545.222915 681.598164 562.639586 652.651902 544.830989zM644.779607 315.068048c0-13.363356-6.005784-18.499329-15.691377-13.007245-29.413913 16.660448-84.810594 49.480948-114.985848 68.886927-11.531638 7.41897-12.793374 18.090007 0 25.850761 32.368198 19.614733 85.200474 52.017724 114.580618 68.658729 9.923 5.621021 16.096607 0.914836 16.096607-12.013615C644.779607 418.789341 644.779607 350.221686 644.779607 315.068048zM365.086487 216.172667l-27.984355 0c-7.726985 0-13.993712 6.265704-13.993712 13.992689L323.10842 537.98507c0 7.725962 6.266727 13.991666 13.993712 13.991666l27.984355 0c7.730055 0 13.995759-6.265704 13.995759-13.991666l0-307.819714C379.082246 222.438371 372.816542 216.172667 365.086487 216.172667L365.086487 216.172667zM365.086487 216.172667"  horiz-adv-x="1024" />

    
    <glyph glyph-name="fanhuidingbu3" unicode="&#58955;" d="M527.019 693.841c-3.98 3.987-9.385 6.225-15.02 6.225s-11.037-2.238-15.022-6.225l-154.8-154.795c-8.295-8.295-8.295-21.745 0-30.04 8.3-8.297 21.747-8.297 30.042 0l139.78 139.775 139.77-139.775c4.15-4.15 9.59-6.225 15.025-6.225s10.875 2.075 15.025 6.225c8.295 8.295 8.295 21.745 0 30.04L527.019 693.841 527.019 693.841zM116.095 299.922l90.867 0 0-231.984 42.485 0L249.447 299.922l90.867 0 0 42.48L116.095 342.402 116.095 299.922zM574.634 342.401 462.086 342.401c-13.587 0-27.18-5.185-37.547-15.55-10.372-10.37-15.555-23.96-15.555-37.555l0-168.25c0-13.595 5.182-27.185 15.555-37.555 10.367-10.37 23.96-15.555 37.547-15.555l112.547 0c13.59 0 27.185 5.185 37.555 15.555 10.37 10.37 15.55 23.96 15.55 37.555L627.738 289.292c0 13.6-5.18 27.185-15.55 37.56C601.818 337.216 588.224 342.401 574.634 342.401L574.634 342.401zM585.258 121.047c0-2.01-0.55-4.945-3.11-7.515-2.57-2.57-5.51-3.11-7.515-3.11L462.086 110.422c-2.005 0-4.935 0.54-7.505 3.11s-3.112 5.505-3.112 7.515L451.469 289.292c0 2.01 0.542 4.945 3.112 7.515s5.5 3.115 7.505 3.115l112.547 0c2.005 0 4.945-0.545 7.505-3.115 2.57-2.57 3.12-5.505 3.12-7.515L585.258 121.047 585.258 121.047zM892.348 326.852c-10.37 10.36-23.965 15.55-37.555 15.55L709.138 342.402l0-274.464 42.48 0 0 120.38 103.175 0c13.595 0 27.185 5.185 37.555 15.555s15.555 23.96 15.555 37.55l0 47.875C907.903 302.892 902.718 316.477 892.348 326.852L892.348 326.852zM865.418 241.422c0-2.005-0.54-4.94-3.11-7.51s-5.51-3.11-7.51-3.11l-103.17 0 0 69.12 103.17 0c2.005 0 4.94-0.545 7.51-3.115s3.11-5.505 3.11-7.515L865.418 241.422 865.418 241.422z"  horiz-adv-x="1024" />

    
    <glyph glyph-name="hj3" unicode="&#59028;" d="M508.491 551.496c-79.695 0-144.466-65.66-144.466-146.431 0-80.77 64.83-146.489 144.466-146.489 7.973 0 16.176 0.831 25.814 2.619 11.241 2.078 18.673 12.964 16.654 24.325-2.082 11.417-12.787 19.030-24.031 16.89-7.133-1.307-13.023-1.901-18.437-1.901-56.857 0-103.132 46.924-103.132 104.556 0 57.634 46.275 104.558 103.132 104.558 56.921 0 103.133-46.924 103.133-104.558 0-5.531-0.595-11.422-1.902-18.677-2.082-11.358 5.408-22.302 16.594-24.385 11.241-2.078 22.004 5.473 24.028 16.834 1.724 9.751 2.559 18.079 2.559 26.17 0.059 80.829-64.771 146.487-144.412 146.487v0zM934.636 487.501c-1.542 8.145-7.673 14.629-15.642 16.531-45.322 10.586-82.967 38.72-106.045 79.223-23.078 40.503-28.251 87.549-14.688 132.573 2.378 7.909-0.064 16.534-6.247 21.95-41.574 36.397-88.975 64.172-141.018 82.549-7.731 2.735-16.294 0.599-21.885-5.468-31.7-34.5-74.526-53.412-120.62-53.412-46.093 0-88.916 18.975-120.557 53.353-5.589 6.062-14.217 8.205-21.949 5.468-51.979-18.318-99.443-46.093-141.018-82.549-6.185-5.413-8.622-14.039-6.243-21.95 13.559-44.963 8.326-92.069-14.692-132.513-23.075-40.562-60.724-68.697-106.045-79.223-7.969-1.842-14.154-8.326-15.642-16.531-5.232-27.838-7.851-55.613-7.851-82.436 0-26.821 2.619-54.597 7.851-82.434 1.548-8.145 7.673-14.629 15.642-16.473 45.322-10.586 82.971-38.72 106.045-79.223 23.020-40.503 28.251-87.549 14.692-132.573-2.378-7.909 0.059-16.535 6.243-21.95 41.574-36.397 88.979-64.171 141.018-82.549 2.201-0.777 4.524-1.189 6.784-1.189 5.649 0 11.121 2.319 15.105 6.661 31.7 34.372 74.523 53.348 120.615 53.348 46.094 0 88.921-18.913 120.562-53.348 5.589-6.067 14.153-8.209 21.884-5.532 51.983 18.318 99.385 46.094 141.018 82.549 6.185 5.414 8.626 14.039 6.243 21.95-13.559 44.963-8.326 92.069 14.752 132.573 23.078 40.503 60.724 68.637 106.045 79.223 7.969 1.842 14.099 8.326 15.642 16.473 5.237 27.898 7.851 55.674 7.851 82.436 0.001 26.823-2.613 54.598-7.851 82.495v0zM896.275 343.272c-50.078-15.347-92.959-49.547-119.133-95.459-26.111-45.857-33.902-100.578-22.062-152.143-31.882-26.111-67.33-46.866-105.632-61.794-38.361 36.698-87.904 56.681-140.958 56.681-52.22 0-102.832-20.519-140.958-56.679-38.303 14.93-73.751 35.684-105.569 61.794 12.133 52.042 4.461 105.573-22.066 152.143-26.227 45.913-69.109 80.113-119.191 95.459-3.271 20.933-4.937 41.633-4.937 61.735 0 20.101 1.666 40.86 4.937 61.793 50.019 15.347 92.905 49.547 119.072 95.459 26.111 45.857 33.902 100.578 22.066 152.143 31.878 26.17 67.267 46.866 105.628 61.854 38.125-36.22 88.797-56.74 141.017-56.74 53.055 0 102.597 20.043 141.018 56.679 38.365-14.929 73.809-35.684 105.632-61.794-11.84-51.565-4.108-106.285 22.003-152.143 26.173-45.913 69.054-80.113 119.133-95.459 3.271-20.995 4.937-41.692 4.937-61.793 0-20.043-1.666-40.745-4.937-61.735v0zM896.275 343.272z"  horiz-adv-x="1024" />

    
    <glyph glyph-name="tuichu1" unicode="&#58956;" d="M802.151864 752.318097c31.235972-22.212313 59.004583-47.37867 83.296916-75.486189 24.297287-28.115447 45.120277-58.481358 62.471944-91.10467 17.356621-32.624303 30.543292-67.159173 39.568933-103.600644 9.023659-36.441472 13.533507-73.402205 13.533507-110.886164 0-64.556918-12.320575-125.116314-36.960733-181.691069-24.64214-56.569801-57.962096-105.853091-99.955902-147.845906-41.993807-41.998761-91.277096-75.313762-147.850861-99.955902-56.56881-24.64115-117.134151-36.965688-181.684132-36.965688-63.860275 0-124.078781 12.324539-180.648582 36.965688C297.348198-33.610306 247.89149-0.295305 205.55283 41.703456c-42.343615 41.992816-75.661588 91.276106-99.955902 147.845906C81.300632 246.124117 69.155456 306.684504 69.155456 371.240431c0 36.787316 4.33643 72.883934 13.015236 108.282918 8.678806 35.398984 20.996408 69.064784 36.960733 100.99839 15.968289 31.926669 35.749783 61.774309 59.350427 89.536975 23.599653 27.768611 49.974978 52.757587 79.131921 74.968909 15.272637 11.107643 31.755233 15.271646 49.456708 12.496965 17.696519-2.781618 32.100087-11.454478 43.20872-26.030472 11.108634-14.58194 15.271646-30.890128 12.496965-48.938437-2.781618-18.047318-11.454478-32.622321-26.029481-43.732937-43.732937-31.926669-77.225319-71.144804-100.480119-117.652422-23.247863-46.507618-34.873777-96.483587-34.873777-149.930881 0-45.810975 8.67286-89.026632 26.030472-129.631116 17.351666-40.605475 41.123746-76.003468 71.316239-106.197944 30.201412-30.19943 65.599405-54.144928 106.20488-71.846402 40.606466-17.696519 83.813205-26.548743 129.631116-26.548743 45.810975 0 89.018704 8.852223 129.62517 26.548743 40.606466 17.701474 76.009414 41.646971 106.202899 71.846402 30.195466 30.194475 54.139973 65.592469 71.841447 106.197944 17.702465 40.606466 26.548743 83.820141 26.548743 129.631116 0 54.138982-12.490028 105.333829-37.478013 153.576613-24.99393 48.240803-60.048061 87.977208-105.161402 119.21318-15.272637 10.411991-24.468723 24.643131-27.592221 42.69045-3.12548 18.048309 0.518271 34.708287 10.930261 49.981915 10.411991 14.575003 24.64214 23.427227 42.69045 26.547752C770.229159 766.369875 786.880218 762.730088 802.151864 752.318097L802.151864 752.318097zM534.570544 368.111978c-18.0493 0-33.494364 6.421405-46.336182 19.264214-12.841818 12.840827-19.263223 28.286882-19.263223 46.335191L468.971138 829.365044c0 18.048309 6.420414 33.6658 19.263223 46.853462 12.841818 13.188654 28.286882 19.781494 46.336182 19.781494 18.738016 0 34.529915-6.59284 47.371733-19.781494 12.841818-13.187663 19.262232-28.805153 19.262232-46.853462l0-395.65366c0-18.047318-6.420414-33.493373-19.262232-46.335191C569.100458 374.533383 553.308559 368.111978 534.570544 368.111978L534.570544 368.111978z"  horiz-adv-x="1024" />

    
    <glyph glyph-name="wenzhangguanli" unicode="&#59004;" d="M682.609797 497.569255 284.520271 497.569255l0-56.869932 398.089526 0L682.609797 497.569255zM284.520271 99.479729l398.089526 0 0 56.869932L284.520271 156.349661 284.520271 99.479729zM284.520271 270.089526l511.82939 0 0 56.869932L284.520271 326.959458 284.520271 270.089526zM966.959458 656.861935 966.959458 668.179051l0 0-11.317117 0L739.479729 884.341664 739.479729 895.65878l0 0-11.317117 0-0.34122 0.34122L727.480173 895.65878 682.609797 895.65878 170.780407 895.65878C107.939131 895.65878 57.040542 844.760191 57.040542 781.918916l0-796.179051c0-62.841275 50.898589-113.739864 113.739864-113.739864l682.439187 0c62.841275 0 113.739864 50.898589 113.739864 113.739864L966.959458 611.309119 966.959458 652.59669l2.104187 2.104187L966.959458 656.861935zM739.479729 803.92758 875.228257 668.179051 739.479729 668.179051 739.479729 803.92758zM910.089526-14.260136c0-31.392203-25.47773-56.869932-56.869932-56.869932L170.780407-71.130068c-31.392203 0-56.869932 25.47773-56.869932 56.869932L113.910474 781.918916c0 31.392203 25.47773 56.869932 56.869932 56.869932l511.82939 0 0-170.609797 0-56.869932 56.869932 0 170.609797 0L910.089526-14.260136z"  horiz-adv-x="1024" />

    
    <glyph glyph-name="xiugaimima" unicode="&#59049;" d="M816.536-95.997l-597.332 0c-60 0-108.607 53.719-108.607 120l0 299.998c0 66.277 48.607 120 108.607 120l0 90c0 182.257 133.692 329.999 298.664 329.999 164.944 0 298.668-147.743 298.668-329.999l0-1.878-0.347 0c-0.938-15.638-12.413-28.125-26.817-28.125-14.372 0-25.88 12.487-26.789 28.125l-0.338 0 0 1.878c0 149.119-109.406 269.997-244.377 269.997s-244.345-120.879-244.345-269.997l0-90 543.013 0c59.972 0 108.609-53.723 108.609-120l0-299.999c-0.005-66.281-48.642-119.999-108.609-119.999l0 0zM870.822 324.001c0 33.141-24.286 60-54.286 60l-597.332 0c-30 0-54.319-26.859-54.319-60l0-299.999c0-33.141 24.319-60 54.319-60l597.331 0c29.972 0 54.286 26.859 54.286 60l0 299.999 0.001 0zM544.999 150.067l0-96.066c0-16.566-12.131-30-27.131-30s-27.159 13.439-27.159 30l0 96.066c-31.477 12.431-54.291 44.869-54.291 83.92 0 49.716 36.45 90.014 81.45 90.014 44.972 0 81.45-40.298 81.45-90.014-0.001-39.052-22.843-71.489-54.319-83.92l0 0zM517.868 264.002c-15 0-27.159-13.434-27.159-30.014 0-16.547 12.159-29.986 27.159-29.986 15 0 27.131 13.439 27.131 29.986 0 16.58-12.131 30.014-27.131 30.014l0 0z"  horiz-adv-x="1024" />

    
    <glyph glyph-name="shouye" unicode="&#59013;" d="M1016.251182 388.367516 512.046963 859.802723 7.835518 389.751104c-9.865745-9.197432-10.414845-24.658943-1.195738-34.51385 9.204657-9.851295 24.691456-10.40762 34.546363-1.188513L512.010838 792.960587 982.849982 352.715727c4.721541-4.418091 10.72552-6.600042 16.7006-6.600042 6.520567 0 13.044747 2.593777 17.849376 7.741593C1026.626289 363.708573 1026.116927 379.155634 1016.251182 388.367516L1016.251182 388.367516 1016.251182 388.367516zM1016.251182 388.367516M862.398307 378.686009c-13.49631 0-24.449418-10.938658-24.449418-24.416905l0-374.443124-195.555606 0 0 260.475891-260.735991 0 0-260.475891L186.108911-20.174021 186.108911 354.269103c0 13.474635-10.935046 24.416905-24.442193 24.416905-13.51076 0-24.449418-10.938658-24.449418-24.416905l0-423.28416 293.335215 0 0 260.483116 162.959994 0 0-260.483116 293.317152 0L886.829662 354.269103C886.836887 367.747351 875.887392 378.686009 862.398307 378.686009L862.398307 378.686009 862.398307 378.686009zM862.398307 378.686009M691.288506 728.697777l146.660382 0 0-130.23072c0-13.499922 10.949496-24.42413 24.449418-24.42413 13.489085 0 24.442193 10.924208 24.442193 24.42413l0 179.071756L691.288506 777.538813c-13.503535 0-24.449418-10.920595-24.449418-24.420518C666.842701 739.621985 677.784971 728.697777 691.288506 728.697777L691.288506 728.697777 691.288506 728.697777zM691.288506 728.697777"  horiz-adv-x="1024" />

    
    <glyph glyph-name="xinzeng1" unicode="&#59100;" d="M966.851 457.866h-376.615v376.617h-149.453v-376.617h-379.61v-149.451h379.61v-379.61h149.451v379.61h376.617v149.451zM966.851 457.866z"  horiz-adv-x="1024" />

    
    <glyph glyph-name="biaoji" unicode="&#59144;" d="M510.684 810.36l142.505-282.025 300.335-39.742-232.751-234.442 63.648-286.223-273.735 157.502-273.723-157.502 63.583 286.223-232.793 234.443 300.442 39.742 142.491 282.023zM510.684 810.36z"  horiz-adv-x="1024" />

    
    <glyph glyph-name="caidan" unicode="&#58898;" d="M79.169331 782.649446l121.006899 0 0-120.557773-121.006899 0 0 120.557773ZM324.965581 782.649446l647.967334 0 0-120.557773-647.967334 0 0 120.557773ZM79.169331 451.450163l121.006899 0 0-120.557773-121.006899 0 0 120.557773ZM324.965581 451.450163l647.967334 0 0-120.557773-647.967334 0 0 120.557773ZM79.169331 141.159219l121.006899 0 0-120.334643-121.006899 0 0 120.334643ZM324.965581 141.159219l647.967334 0 0-120.334643-647.967334 0 0 120.334643Z"  horiz-adv-x="1024" />

    
    <glyph glyph-name="wenzhang" unicode="&#58916;" d="M251.25 443.6l521.5 0 0-29.8-521.5 0 0 29.8ZM251.25 279.699l521.5 0 0-29.8-521.5 0 0 29.8ZM251.25 115.8l253.3 0 0-29.801-253.3 0 0 29.801ZM884.457 594.593l0 0.189-0.189 0L649.214 830.796 649.214 831l-29.8 0L610 831 139.5 831l0-894 744.957 0L884.457 555.408l0 39.068 0.043 0.059L884.457 594.593zM649.214 788.555l195.155-195.94-195.155 0.015L649.214 788.555zM854.656-33.2 169.3-33.2 169.3 801.2l450.114 0 0-208.571L619.414 577.7l0-14.9 235.242 0.015L854.656-33.2z"  horiz-adv-x="1024" />

    
    <glyph glyph-name="soucang" unicode="&#58980;" d="M773.657348-75.406155 544.571836 46.687578c-19.270902 10.270924-42.360783 10.400884-61.746296 0.348947L252.374938-72.462103c-29.661553-15.381315-64.085574 9.927093-58.250682 42.826388l45.327348 255.602446c3.812839 21.500687-3.198855 43.50177-18.749016 58.83192L35.83823 467.042321c-23.793916 23.457248-10.361999 64.015989 22.729677 68.63417l257.099543 35.877115c21.626553 3.01773 40.383756 16.48444 50.158377 36.011168L482.025315 839.697693c14.956643 29.878494 57.6807 29.636994 72.29863-0.408299l113.568569-233.429447c9.553587-19.636223 28.157293-33.313733 49.748031-36.576033l256.676917-38.779212c33.037441-4.991688 46.010917-45.699832 21.952988-68.885903L809.363571 281.473929c-15.722076-15.153118-22.981411-37.07336-19.412119-58.616002l42.436508-256.098749C837.850369-66.203562 803.142893-91.121068 773.657348-75.406155zM544.995485 121.833045l204.874087-109.189841c3.361561-1.791809 7.319709 1.048889 6.696516 4.807493l-37.951357 229.0323c-3.569292 21.542642 3.690042 43.462884 19.412119 58.616002l167.156044 161.105235c2.743484 2.644223 1.263783 7.284917-2.503007 7.854898l-229.551116 34.679847c-21.591761 3.2623-40.195467 16.939811-49.749054 36.576033l-101.565187 208.758558c-1.666966 3.426029-6.537903 3.453658-8.243755 0.047072l-103.917768-207.598128c-9.774621-19.526729-28.531823-32.993438-50.158377-36.011168l-229.92667-32.085766c-3.77293-0.527003-5.304819-5.151323-2.592035-7.825222L292.300252 307.616332c15.550161-15.33015 22.561855-37.331233 18.749016-58.83192l-40.536228-228.588185c-0.665149-3.751441 3.25923-6.637164 6.642281-4.883217L483.249189 122.181993C502.634702 132.233929 525.724583 132.10397 544.995485 121.833045z"  horiz-adv-x="1025" />

    
    <glyph glyph-name="return" unicode="&#59066;" d="M622.651 611.098h-174.906v142.078l-383.764-191.881 383.763-191.882 0 141.752h189.391c149.914 0 224.855-62.789 224.855-188.368 0-129.928-77.436-194.876-232.339-194.876h-441.7v-99.932h446.194c211.185 0 316.778 95.104 316.778 285.311-0 198.521-109.414 297.798-328.274 297.798z"  horiz-adv-x="1024" />

    
    <glyph glyph-name="buoumaotubiao16" unicode="&#58895;" d="M93.556364 326.865455c-40.843636 40.797091-70.306909 88.948364-84.154182 141.614545-13.614545 49.896727-12.846545 103.563636 5.003636 157.998545C30.301091 673.861818 58.274909 717.451636 94.021818 752.477091c35.328 34.280727 79.406545 61.765818 127.534545 76.869818 55.691636 17.92 111.127273 17.92 162.280727 4.538182 46.638545-12.334545 89.972364-35.514182 128.279273-67.281455 38.539636 31.767273 81.384727 54.946909 127.767273 67.281455 51.898182 13.381818 107.310545 12.846545 163.048727-4.538182 48.104727-15.639273 91.997091-42.589091 128.256-77.358545 35.025455-34.769455 62.254545-78.103273 78.103273-125.486545l0.279273 0c17.873455-54.434909 18.641455-108.125091 5.050182-157.998545-13.893818-52.666182-43.357091-100.817455-83.432727-141.614545l-2.513455-1.768727L539.345455-63.744c-15.104-15.639273-39.540364-15.639273-55.179636 0.744727L93.556364 326.865455zM310.365091 796.834909 310.365091 796.834909c20.619636 0 41.355636-2.699636 61.579636-7.982545 39.354182-10.402909 76.520727-29.975273 110.475636-58.112l29.602909-24.552727 29.672727 24.459636c34.420364 28.346182 71.447273 47.941818 109.800727 58.135273 20.270545 5.236364 41.029818 7.866182 61.696 7.866182 25.297455 0 50.850909-3.956364 75.333818-11.613091 40.471273-13.149091 78.661818-36.212364 109.847273-66.117818 30.254545-30.021818 53.341091-67.118545 66.769455-107.240727l2.722909-7.959273c12.125091-41.565091 12.753455-82.920727 1.722182-123.392-11.008-41.704727-34.746182-82.408727-68.770909-117.922909l-2.234182-1.559273-2.839273-2.839273L512.116364-25.157818 126.440727 359.796364c-35.770182 35.746909-60.672 77.428364-72.145455 120.925091-11.659636 42.728727-10.193455 86.900364 4.212364 130.932364 13.381818 39.819636 36.933818 77.032727 67.956364 107.403636 31.511273 30.580364 69.213091 53.341091 109.358545 65.954909C260.212364 792.855273 285.300364 796.834909 310.365091 796.834909M310.341818 843.380364c-29.090909 0-58.903273-4.445091-88.762182-14.056727-48.128-15.104-92.229818-42.589091-127.534545-76.869818-35.746909-35.025455-63.720727-78.615273-79.639273-125.998545-17.850182-54.434909-18.618182-108.125091-5.003636-157.998545 13.870545-52.666182 43.310545-100.817455 84.154182-141.614545l390.609455-389.864727c7.912727-8.285091 18.059636-12.381091 28.136727-12.381091 9.844364 0 19.572364 3.909818 27.042909 11.636364l389.329455 388.840727 2.513455 1.768727c40.075636 40.797091 69.538909 88.948364 83.432727 141.614545 13.591273 49.896727 12.823273 103.563636-5.050182 157.998545l-0.279273 0c-15.872 47.383273-43.101091 90.717091-78.103273 125.486545-36.258909 34.792727-80.128 61.719273-128.256 77.358545-30.161455 9.402182-60.253091 13.870545-89.716364 13.870545-24.971636 0-49.524364-3.211636-73.309091-9.332364-46.382545-12.334545-89.227636-35.514182-127.767273-67.281455C473.809455 798.347636 430.475636 821.527273 383.837091 833.861818 360.145455 840.075636 335.499636 843.380364 310.341818 843.380364L310.341818 843.380364z"  horiz-adv-x="1024" />

    
    <glyph glyph-name="shijian" unicode="&#59280;" d="M507.398192-59.662589c-247.033279 0-447.241091 200.233394-447.241091 447.233927 0 247.019976 200.207811 447.233927 447.241091 447.233927 246.974951 0 447.233927-200.213951 447.233927-447.233927C954.632119 140.569782 754.374166-59.662589 507.398192-59.662589zM507.398192 764.915499c-208.417797 0-383.241474-169.003112-383.241474-377.440351 0-208.378911 174.919868-383.343805 383.337665-383.343805 208.430076 0 383.349945 174.96387 383.349945 383.343805C890.844328 595.912387 715.822129 764.915499 507.398192 764.915499zM443.609377 323.585025 443.609377 579.140399l63.883983 0 0-191.671391 191.671391 0 0-63.883983L443.609377 323.585025z"  horiz-adv-x="1024" />

    
    <glyph glyph-name="sousuo1" unicode="&#59160;" d="M726.624149 433.944506c0 157.152203-123.57241 284.307208-276.247648 284.307208S174.128853 591.096708 174.128853 433.944506c0-156.705018 123.57241-283.859 276.247648-283.859S726.624149 277.239488 726.624149 433.944506zM864.523869-47.810656 696.178743 125.012458l-1.343601 1.790786c-66.711378-55.965639-151.779845-89.545432-244.459664-89.545432-213.56605 0-386.389164 177.748287-386.389164 396.686694 0 219.386616 172.823114 397.133879 386.389164 397.133879 213.117842 0 386.389164-177.748287 386.389164-397.133879 0-82.829474-25.073048-159.838382-67.159586-223.416396l5.372358-4.476965 168.345126-172.823114c21.490453-22.385846 21.490453-58.651818 0-81.038688C921.385924-69.749318 886.46253-69.749318 864.523869-47.810656z"  horiz-adv-x="1024" />

    
    <glyph glyph-name="baocun1" unicode="&#58912;" d="M296.896 121.5936 413.568 121.5936 413.568-67.7248 296.896-67.7248 296.896 121.5936ZM940.888186 895.961888 22.875417 895.961888C10.7259 895.961888 0.876844 886.112833 0.876844 873.963316L0.876844 79.141888 147.983078-66.049126 215.163148-66.049126 215.163148-65.924749 215.163148-33.236186 215.163148 214.443123 657.644186 214.443123 657.644186-65.924749 656.954048-65.924749 656.954048-66.049126 940.888186-66.049126C953.037709-66.049126 962.886758-56.200077 962.886758-44.050554L962.886758 873.963316C962.887859 886.112833 953.038803 895.961888 940.888186 895.961888L940.888186 895.961888ZM809.340339 411.831495 154.424369 411.831495 154.424369 843.305544 809.340339 843.305544 809.340339 411.831495 809.340339 411.831495ZM296.896-65.9264 413.568-65.9264 413.568-72.3264 296.896-72.3264Z"  horiz-adv-x="1024" />

    
    <glyph glyph-name="zhuti" unicode="&#58963;" d="M759.695266-55.642024H263.192794c-41.142784 0-74.614619 33.472859-74.614619 74.614619V447.735838l-33.911082-21.694083c-7.176412-4.957653-17.120387-7.970947-27.227158-7.970947-24.241509 0-43.634921 16.10674-47.168349 39.197402l-3.479163 21.803638c-5.724543 35.417217-13.585934 83.92788-13.668869 113.949222-0.081911 29.74694 25.446622 58.426992 41.553362 69.519765L299.048235 795.44627c7.64228 5.094853 14.408114 5.094853 21.556881 5.094853l44.264611-0.246756 16.571584 0.05529c7.807126 1.041291 14.654871-2.876094 19.913545-8.108148a28.085174 28.085174 0 0 0 8.32726-19.85928c0.163822-55.523253 44.292255-99.020974 100.472843-99.020973 56.180588 0 100.335642 43.49772 100.472843 99.020973a28.175276 28.175276 0 0 0 8.299614 19.85928c5.28632 5.258675 12.134065 9.450462 19.941191 8.108148l16.626874-0.05529 44.401811 0.246756c7.313613 0 14.216648 0 21.666437-5.149119l198.864127-132.712944c26.159246-18.763722 37.253044-40.211048 36.787176-70.122834-0.657334-6.793479-11.559665-102.061913-17.229942-135.589038-3.670629-21.803638-24.679732-38.239045-48.866975-38.239046-9.586638 0-18.571232 2.684627-26.022046 7.807126l-30.788231 19.666789v-427.229462c0.003072-41.14176-33.469787-74.614619-74.612572-74.614619z m-543.068776 582.704401c4.628986 0 9.257971-1.150847 13.449757-3.451517 9.012239-4.903387 14.599581-14.352824 14.599581-24.597821v-480.040444c0-10.217352 8.299614-18.516966 18.516966-18.516966h496.502472c10.217352 0 18.516966 8.299614 18.516966 18.516966V497.369703a28.062649 28.062649 0 0 0 14.571936 24.597821c9.03886 4.875742 19.913546 4.547075 28.569472-0.958357l65.329004-41.717184c5.752188 39.581359 14.51767 116.031804 14.627225 116.880606-0.027645 7.148767-1.123202 11.997888-12.792423 20.379413L696.886045 744.415825l-9.121795-0.054265c-6.464812-0.054266-14.46238-0.137201-23.666085-0.163822-13.531668-72.094837-77.464092-126.933111-153.941159-126.933112-76.450446 0-140.382869 54.838274-153.941158 126.933112-9.148415 0.027645-17.065097 0.109556-23.502264 0.163822l-8.902683 0.054265-187.387396-128.111603c-7.066857-4.875742-16.901275-18.106388-17.202298-23.173597 0.081911-25.529557 7.532724-71.519414 12.956245-105.101828l1.424225-8.902683 67.904074 43.49772a27.937735 27.937735 0 0 0 15.120739 4.438543z"  horiz-adv-x="1024" />

    
    <glyph glyph-name="yonghuguanli" unicode="&#58905;" d="M518.826667 313.002667c-143.36 0-260.096 113.322667-260.096 251.904C258.730667 703.488 375.466667 816.810667 518.826667 816.810667s260.096-113.322667 260.096-251.904c0-138.581333-116.736-251.904-260.096-251.904z m0 462.848c-120.832 0-219.136-94.890667-219.136-210.944S397.994667 353.962667 518.826667 353.962667s219.136 94.890667 219.136 210.944S639.658667 775.850667 518.826667 775.850667zM99.669333-48.810667h-3.413333c-10.922667 2.048-18.432 12.970667-16.384 23.893334 38.912 219.136 223.914667 378.88 439.637333 378.88 103.765333 0 201.386667-36.181333 282.624-104.448 8.874667-7.509333 9.557333-20.48 2.730667-28.672-7.509333-8.874667-20.48-9.557333-28.672-2.730667-74.410667 62.122667-163.157333 94.890667-257.365333 94.890667-195.242667 0-363.178667-145.408-398.677334-344.746667-2.048-10.24-10.922667-17.066667-20.48-17.066667zM924.330667 69.290667H591.872c-11.605333 0-20.48 8.874667-20.48 20.48s8.874667 20.48 20.48 20.48h332.458667c11.605333 0 20.48-8.874667 20.48-20.48s-8.874667-20.48-20.48-20.48zM924.330667-48.810667H591.872c-11.605333 0-20.48 8.874667-20.48 20.48s8.874667 20.48 20.48 20.48h332.458667c11.605333 0 20.48-8.874667 20.48-20.48s-8.874667-20.48-20.48-20.48z"  horiz-adv-x="1024" />

    
    <glyph glyph-name="add1" unicode="&#58889;" d="M788.281 347.506h-540.995c-16.8 0-30.4 13.6-30.4 30.4 0 16.8 13.6 30.4 30.4 30.4h540.995c16.8 0 30.4-13.6 30.4-30.4 0-16.7-13.6-30.4-30.4-30.4zM517.684 76.809c-16.8 0-30.4 13.6-30.4 30.4v541.495c0 16.8 13.6 30.4 30.4 30.4s30.4-13.6 30.4-30.4v-541.495c0.1-16.8-13.6-30.4-30.4-30.4zM512.484-127.989c-69.099 0-136.199 13.5-199.298 40.3-60.999 25.8-115.799 62.699-162.698 109.799-47.1 47-83.999 101.699-109.799 162.798-26.7 63.199-40.2 130.199-40.2 199.298s13.6 136.199 40.2 199.298c25.8 60.699 62.699 115.599 109.799 162.598s101.699 83.999 162.698 109.599c63.099 26.7 130.199 40.3 199.298 40.3s136.199-13.5 199.298-40.3c60.999-25.8 115.799-62.599 162.698-109.599 47.1-47 83.999-101.699 109.799-162.798 26.7-63.199 40.2-130.199 40.2-199.298 0-92.699-25.1-183.498-72.499-262.697-8.7-14.5-27.3-19.1-41.7-10.5-14.4 8.7-19 27.3-10.5 41.8 41.7 69.699 63.799 149.699 63.899 231.298 0 60.899-11.9 119.899-35.4 175.498-22.7 53.799-55.299 101.899-96.699 143.399s-89.799 73.999-143.499 96.699c-55.599 23.6-114.699 35.4-175.698 35.4s-119.999-11.9-175.698-35.4c-53.599-22.7-101.799-55.199-143.199-96.699s-73.999-89.599-96.699-143.399c-23.5-55.599-35.4-114.699-35.4-175.498 0-60.899 11.9-119.899 35.4-175.498 22.7-53.799 55.299-101.899 96.699-143.399 41.4-41.4 89.799-73.999 143.499-96.699 55.599-23.6 114.699-35.4 175.698-35.4 90.899 0 178.498 26.9 253.398 77.799 13.9 9.4 32.8 5.9 42.3-8 9.4-13.9 5.9-32.9-8-42.3-85.199-57.899-184.698-88.399-287.897-88.399z"  horiz-adv-x="1024" />

    
    <glyph glyph-name="baocun2" unicode="&#58913;" d="M845.312 895.488H32.512v-1022.976h958.976v876.8L845.312 895.488z m-172.864-62.976v-256H351.488v256h320.96zM287.488-64.512V290.24l29.184 29.248h390.656l29.184-29.248v-354.752H287.488z m640 0h-126.976V310.848L727.424 384H296.576L223.488 310.848v-375.36H96.512V832.512h190.976v-320.448h449.024V832.512h79.68l111.296-112.32v-784.704z m-384 832h65.984v-128H543.488v128z"  horiz-adv-x="1024" />

    
    <glyph glyph-name="zanting1" unicode="&#58890;" d="M430.4 555.392c-18.24 0-33.088-12.736-33.088-28.544v-285.696c0-15.744 14.784-28.544 33.088-28.544 18.24 0 33.024 12.8 33.024 28.544v285.696c0 15.808-14.848 28.544-33.024 28.544zM594.624 555.392c-18.24 0-33.024-12.736-33.024-28.544v-285.696c0-15.744 14.72-28.544 33.024-28.544s33.088 12.8 33.088 28.544v285.696c0 15.808-14.848 28.544-33.088 28.544zM512.512 830.016c-245.952 0-446.016-200.064-446.016-446.016s200.064-446.016 446.016-446.016 446.016 200.064 446.016 446.016-200.064 446.016-446.016 446.016zM512.512 1.984c-210.624 0-382.016 171.392-382.016 382.016s171.392 382.016 382.016 382.016 382.016-171.392 382.016-382.016-171.392-382.016-382.016-382.016z"  horiz-adv-x="1024" />

    
    <glyph glyph-name="wode1" unicode="&#58930;" d="M957.1328 47.0016a501.9648 501.9648 0 0 1-14.9504 28.0576 519.936 519.936 0 0 1-105.728 126.8736 516.096 516.096 0 0 1-182.1184 103.0144 315.136 315.136 0 0 1 70.8096 53.248 312.5248 312.5248 0 0 1 92.6208 222.72c0 84.1728-32.9216 163.328-92.6208 222.8224A314.5728 314.5728 0 0 1 502.272 896h-3.8912a314.5728 314.5728 0 0 1-218.9312-92.2624 312.5248 312.5248 0 0 1-92.6208-222.8224c0-84.1216 32.9216-163.2768 92.6208-222.72a317.3376 317.3376 0 0 1 70.8096-53.248 516.096 516.096 0 0 1-204.0832-123.392 519.3216 519.3216 0 0 1-83.7632-106.496A499.1488 499.1488 0 0 1 0.3072-107.52c-0.7168-5.3248 0-19.0976 0-19.0976h59.7504s-0.512 6.2976 0 9.8304a464.7936 464.7936 0 0 0 130.7136 259.1744c81.3056 81.92 191.9488 133.3248 311.5008 133.5296 120.0128-0.4096 230.4-51.8144 311.552-133.5296a464.8448 464.8448 0 0 0 130.7136-259.1744c1.9456-13.312 1.3312-10.0352 0-9.8304 1.3312-0.2048 59.7504 1.4848 59.7504 0 0-1.536 2.304 1.8432 0 19.0976a498.9952 498.9952 0 0 1-47.1552 154.5216zM499.712 328.9088c-117.9648 0.8704-223.1808 82.5344-251.904 192.1536a232.96 232.96 0 0 0-7.8336 59.904 239.2576 239.2576 0 0 0 7.7824 60.4672c28.928 112.3328 135.1168 201.6256 253.8496 201.6256 120.1152 0 226.304-89.2928 255.1808-201.6256l0.9216-3.6864a233.0624 233.0624 0 0 0-0.9216-116.736c-28.7232-109.568-133.9392-191.232-251.904-192.1024H499.712z"  horiz-adv-x="1024" />

    
    <glyph glyph-name="yinle1" unicode="&#58897;" d="M216.726588 124.747294c72.101647 0 133.029647-39.062588 133.029647-85.323294 0-46.260706-60.928-85.353412-133.029647-85.353412-72.101647 0-133.029647 39.092706-133.029647 85.353412s60.928 85.323294 133.029647 85.323294z m595.245177-88.064c-72.101647 0-133.029647 39.062588-133.029647 85.323294 0 46.260706 60.928 85.323294 133.029647 85.323294 72.101647 0 132.999529-39.062588 132.999529-85.323294 0-46.260706-60.897882-85.323294-132.999529-85.323294zM409.991529 589.191529V744.658824l534.979765 76.709647V665.901176l-534.979765-76.709647zM216.726588-106.164706c108.363294 0 193.264941 63.969882 193.264941 145.588706V528.353882L944.971294 605.063529v-376.771764c-34.424471 24.395294-80.926118 39.273412-132.999529 39.273411-108.363294 0-193.264941-63.939765-193.264941-145.558588s84.901647-145.558588 193.264941-145.558588 193.234824 63.939765 193.234823 145.558588V853.353412h-0.030117c0 0.421647 0.210824 0.783059 0.180705 1.204706A30.268235 30.268235 0 0 1 973.914353 883.651765c-0.963765-0.030118-1.746824-0.512-2.710588-0.632471l-0.39153 2.861177L378.88 801.069176h-0.240941c-0.240941 0-0.451765-0.120471-0.722824-0.150588l-2.409411-0.331294 0.090352-0.210823a29.906824 29.906824 0 0 1-25.840941-29.605647h-0.030117v-0.210824c0-0.331294-0.180706-0.632471-0.180706-0.963765 0-0.240941 0.150588-0.421647 0.180706-0.63247v-623.254589c-34.424471 24.395294-80.956235 39.273412-133.029647 39.273412-108.363294 0-193.264941-63.939765-193.264942-145.558588s84.901647-145.588706 193.264942-145.588706z"  horiz-adv-x="1024" />

    
    <glyph glyph-name="tupian" unicode="&#58917;" d="M939.690667-20.759273c0-17.097697-13.963636-31.030303-31.030303-31.030303H99.917576c-17.128727 0-31.030303 13.932606-31.030303 31.030303v806.787879c0 17.066667 13.901576 31.030303 31.030303 31.030303h808.711757c17.066667 0 31.030303-13.963636 31.030303-31.030303v-806.787879z m-31.030303 899.878788H99.917576c-51.355152 0-93.090909-41.766788-93.090909-93.090909v-806.787879c0-51.324121 41.735758-93.090909 93.090909-93.090909h808.711757c51.324121 0 93.090909 41.766788 93.090909 93.090909v806.787879c0 51.324121-41.766788 93.090909-93.090909 93.090909zM321.008485 640.558545a73.75903 73.75903 0 0 0 73.69697-73.696969 73.75903 73.75903 0 0 0-73.69697-73.69697 73.75903 73.75903 0 0 0-73.69697 73.69697 73.75903 73.75903 0 0 0 73.69697 73.696969m0-209.454545a135.912727 135.912727 0 0 1 135.757576 135.757576 135.912727 135.912727 0 0 1-135.757576 135.757576 135.912727 135.912727 0 0 1-135.757576-135.757576 135.912727 135.912727 0 0 1 135.757576-135.757576M866.924606 215.133091l-121.700848 121.700848-0.155152-0.155151a30.595879 30.595879 0 0 1-43.287273 0.155151l-0.217212 0.217213-283.151515-277.317819 0.217212-0.217212a30.75103 30.75103 0 1 1 43.008-43.907879l0.217212-0.217212 261.213091 255.844849 99.979637-99.979637 0.186181 0.155152a30.782061 30.782061 0 0 1 43.535516 43.566545l0.155151 0.155152zM411.67903 134.144a30.782061 30.782061 0 0 1 21.752243 52.565333l0.186182 0.155152-90.670546 90.670545-0.155151-0.155151a30.564848 30.564848 0 0 1-43.070061 0.310303l-0.248242 0.248242-159.030303-153.196606 0.527515-0.558545a30.844121 30.844121 0 0 1 21.752242-52.596364 30.564848 30.564848 0 0 1 22.465939 10.053818l135.416243 130.482425 69.135515-69.135516 0.155152 0.186182a30.72 30.72 0 0 1 21.783272-9.029818"  horiz-adv-x="1024" />

    
    <glyph glyph-name="pifu" unicode="&#58959;" d="M697.04732-66.007087l-31.090089 0.309038-347.034854-0.142239c-18.637476 0-39.903825 0.880043-56.257282 11.513218-10.169617 6.375198-23.608697 19.219737-29.782303 35.514865-4.995781 13.344936-4.828982 27.878954-4.674463 41.937134l0.047072 69.982888V375.166821a88.988754 88.988754 0 0 0-11.95324-5.994528c-20.374026-8.456602-48.25298-4.114714-68.352761 9.836019-7.124258 5.042853-12.416797 10.514471-17.07898 15.331174l-10.692527 10.525727-37.20332 35.752272a2175.512139 2175.512139 0 0 0-20.374026 20.611434c-6.339382 5.423523-12.143575 11.322883-17.935488 17.245779l-6.220678 6.303566c-1.772366 1.74883-3.699252 3.496637-5.590322 5.245468-8.230452 7.528464-18.470677 16.900925-24.953322 31.792077-3.544733 7.93267-10.180873 22.76447-7.064906 38.999222 5.542226 29.448706 23.597441 45.528939 38.107923 58.446134 5.030573 4.448312 8.587586 8.111748 12.155855 11.750625 4.103458 4.175089 8.206916 8.349155 12.54778 12.238742L228.054833 804.1245c7.707542 7.862062 18.173918 18.530029 33.873482 24.596187l24.35878 5.935176s67.409273 4.474918 89.274256 0c7.894807-1.6158 22.633486-9.66922 28.794814-14.486946 9.217942-7.088442 15.771195-15.532765 21.551851-22.97834l1.558496-1.998517c4.662183-5.970992 15.807011-13.68979 25.916253-17.935488 11.965519-4.959965 25.571399-8.111748 42.163285-11.239995l19.755949-1.248434c3.520173 0 8.646937 0.666172 14.45113 1.87879 32.041764 6.446829 44.957935 10.81123 63.536059 25.619494 1.641383 1.320065 4.02057 4.555759 6.327102 7.682983 4.114714 5.613858 9.253758 12.607132 16.960277 18.304902l18.649756 12.048407c3.972475 1.558495 12.148691 3.969405 15.627932 4.579295 6.834662 1.197268 59.635215 0 66.152652 0 24.001647 0 39.011502-2.104941 50.144051-7.957229 12.56006-6.779404 21.647019-15.842827 29.63904-23.834848l154.308435-150.883429c6.303566-6.732331 12.274558-12.249999 18.220991-17.793248 7.064906-6.576789 14.129812-13.165858 20.647249-20.243043 1.664919-1.760087 3.544733-3.62762 5.399986-5.470595 8.563026-8.480138 19.219737-19.041682 25.381064-36.22811l1.379417-6.553253c0.143263-2.295276 0.237407-4.590552 0.285502-6.898107 3.900843-28.211529-11.584849-47.812959-17.507745-55.293327l-2.117221-2.354627-97.957009-95.590102c-12.916171-14.605649-30.637788-34.610262-57.875129-39.653115-21.765723-4.031826-38.677904 1.296529-51.737338 9.122774v-282.760992c-0.047072-31.494295-0.190335-63.036685-0.357134-94.459348l-0.499373-4.828982c-3.425006-16.437367-13.392008-32.707936-26.070772-42.460044-20.361747-15.464203-47.432289-16.749476-71.243601-16.749476z m-358.035396 49.0266l358.036419-0.309039c9.800203 0 32.803103 0 41.675169 6.732332 2.544963 1.973958 5.922896 6.946202 7.445575 11.775184 0.143263 30.400381 0.285502 60.895929 0.332575 91.319845V434.67003l31.447223 21.503756 26.451442-25.666566c12.630668-12.405541 20.361747-18.958794 33.706683-16.473183 10.728342 1.986237 21.099551 13.701047 30.257117 24.037463l2.973728 3.354397 96.267531 93.699032c5.780657 7.528464 7.42204 12.131295 6.470365 17.780969l-0.332575 3.544732c0 0.808412-0.023536 1.617847-0.047072 2.426259-2.449795 5.007037-6.28003 8.955976-12.607132 15.223727-2.235924 2.223644-4.495384 4.471848-6.755868 6.838755-5.875824 6.375198-12.036128 12.084223-18.197454 17.804505-6.80294 6.339382-13.606903 12.691043-19.910469 19.470447l-153.83362 150.396335c-6.208399 6.184863-12.060687 12.036128-18.149359 15.318894-0.642636 0.332575-6.136767 2.628874-27.236318 2.628873-6.089695 0-12.274558-0.166799-18.22099-0.321318-5.89936-0.154519-11.56029-0.297782-16.698311-0.297782H662.581344c-2.830465-0.880043-5.256724-1.248434-7.016811-1.486864l-10.799973-6.030343c-1.688455-1.593288-3.805676-4.495384-5.899361-7.314593-3.758604-5.125741-8.420787-11.489682-15.128558-16.877389-26.427906-21.040199-47.337121-27.891234-84.207867-35.31225-13.344936-2.771113-24.536836-3.568269-33.504069-2.200109l-17.899672 1.12973c-20.291139 3.76986-37.143968 7.671727-53.497424 14.451131-14.355963 6.030343-33.754778 17.804505-45.552476 32.909527l-1.641383 2.104941c-4.579295 5.887081-8.515954 10.965749-12.928451 14.355962-1.153266 0.642636-2.984984 1.153266-4.76963 1.783623a128.432091 128.432091 0 0 0-6.422269 2.485611h-61.788252l-14.43885-1.237177c-9.753131-0.321318-14.486946-4.733814-24.239054-14.688538l-29.829376-29.27065-136.066979-133.029806c-4.329609-3.913123-7.695263-7.373944-11.073196-10.81123-4.376681-4.471848-8.789177-8.93244-13.46364-13.059434-14.320147-12.761652-21.349237-19.505239-23.716144-32.113395 0-1.795902 2.331092-7.005554 3.318582-9.229198 2.794649-6.386454 6.815219-10.216689 13.725606-16.543792 2.318812-2.117221 4.662183-4.270257 6.946202-6.517437l6.826476-6.910386c4.983501-5.102205 9.931187-10.216689 15.414061-14.843057l1.795903-1.664919c6.743588-6.933923 13.546527-13.796214 20.33821-20.600177l48.823986-47.206138c3.651157-3.78214 6.80294-7.04137 10.014074-9.31311 4.888334-3.390213 16.020882-7.077186 21.860891-4.674463 9.134031 3.746324 16.294105 10.965749 24.583908 19.327184 4.15053 4.186346 19.660782 21.331841 19.660782 21.331841l34.967396-20.213367-0.059352-412.092569c-0.095167-9.134031-0.213871-19.481703 1.558495-24.215518 1.332345-3.520173 6.208399-8.991792 10.394745-11.608386 5.970992-3.877307 24.096814-3.877307 30.055526-3.877307l20.088524 0.14224z"  horiz-adv-x="1024" />

    
    <glyph glyph-name="xiangmuguanli1" unicode="&#58896;" d="M776-36H248c-55.1 0-100 44.9-100 100V704c0 55.1 44.9 100 100 100h150.9c6.4 0 12.5-3.1 16.2-8.3l70-97.3H776c55.1 0 100-44.9 100-100V64c0-55.1-44.9-100-100-100zM248 764c-33.1 0-60-26.9-60-60v-640c0-33.1 26.9-60 60-60h528c33.1 0 60 26.9 60 60V598.4c0 33.1-26.9 60-60 60H474.9c-6.4 0-12.5 3.1-16.2 8.3l-70 97.3H248zM168 678.4V704c0 44 36 80 80 80h150.9l76-105.6H168zM514 658.4H148V704c0 55.1 44.9 100 100 100h161.2L514 658.4z m-326 40h247.9L388.7 764H248c-33.1 0-60-26.9-60-60v-5.6zM278.7 504.8m-12 0a12 12 0 1 1 24 0 12 12 0 1 1-24 0ZM758.5 492.8h-400c-6.6 0-12 5.4-12 12s5.4 12 12 12h400c6.6 0 12-5.4 12-12s-5.4-12-12-12zM758.5 319.2h-400c-6.6 0-12 5.4-12 12s5.4 12 12 12h400c6.6 0 12-5.4 12-12s-5.4-12-12-12zM758.5 145.6h-400c-6.6 0-12 5.4-12 12s5.4 12 12 12h400c6.6 0 12-5.4 12-12s-5.4-12-12-12zM278.7 157.6m-12 0a12 12 0 1 1 24 0 12 12 0 1 1-24 0ZM278.7 331.2m-12 0a12 12 0 1 1 24 0 12 12 0 1 1-24 0Z"  horiz-adv-x="1024" />

    
    <glyph glyph-name="icon-test" unicode="&#58902;" d="M856.4 401.8l-359.8-359.8c-0.8-0.8-2.1-0.8-2.8 0l-42.8 42.8c-0.8 0.8-0.8 2.1 0 2.8l359.8 359.8c0.8 0.8 2.1 0.8 2.8 0l42.8-42.8c0.8-0.7 0.8-2 0-2.8zM110.7 756.3l-45.7-271c-1.7-10.3 1.6-20.8 9-28.2l511-511.1c12.6-12.6 33-12.6 45.6 0l319.4 319.4c12.6 12.6 12.6 33 0 45.6l-511 511c-7.4 7.4-18.1 10.8-28.4 9l-273.8-48.3c-13.4-2.4-23.9-12.9-26.1-26.4zM881.6 288.2l-273.8-273.8-473.2 473.3 35.8 209.6c2.3 13.4 12.7 23.9 26.1 26.3l211.8 37.8 473.3-473.2zM276.7 618.1c-37.8-37.8-37.8-99.1 0-136.9s99.1-37.8 136.9 0 37.8 99.1 0 136.9-99.1 37.8-136.9 0zM368 526.8c-12.6-12.6-33-12.6-45.6 0-12.6 12.6-12.6 33 0 45.6 12.6 12.6 33 12.6 45.6 0 12.6-12.5 12.6-33 0-45.6z"  horiz-adv-x="1024" />

    
    <glyph glyph-name="xiaoxi" unicode="&#59125;" d="M816.489364 52.883697H207.508589c-30.882358 0-55.887868 24.110117-55.887868 53.821813v59.185984c0 14.391778 5.380544 28.116361 14.471596 37.806047l70.133314 93.646844V472.315418c0 79.867002 27.060309 153.967674 76.234265 208.519104 23.094998 25.689079 50.090838 45.733601 80.249719 60.364833 8.450463 4.098341 15.318894 10.918677 18.481933 19.764136 14.794961 41.405015 54.255695 71.062476 100.726076 71.062475 0.029676 0 0.054235-0.004093 0.083911-0.008186a0.528026 0.528026 0 0 0 0.079818 0.008186c46.472428 0 85.933161-29.65746 100.730169-71.062475 3.15997-8.845459 10.030447-15.665795 18.479886-19.764136 30.159904-14.631232 57.156768-34.675754 80.249719-60.364833 49.173956-54.552453 76.232219-128.652102 76.232219-208.519104v-174.972057l70.133313-93.646843c9.095145-9.688663 14.471596-23.414269 14.471597-37.806048v-59.185984c0-29.711695-25.003464-53.82079-55.888892-53.820789z m-0.608867 113.007797l-70.188572 93.588515c-9.093099 9.523911-14.471596 23.357987-14.471596 37.864376V472.315418c0 65.583694-21.787212 125.963876-61.432141 170.096003-19.568684 21.73093-42.691311 38.705534-68.746734 50.465369a191.223183 191.223183 0 0 1-9.311063 3.895726c-15.830547 6.139837-28.788673 19.481703-31.66928 36.217877a51.103912 51.103912 0 0 1-2.0241 7.866154c-5.341658 15.58393-18.805298 27.962865-34.881438 31.507598-0.480954 0.105401-0.937348 0.060375-1.416256 0.150426v-0.097214c-3.149736 0.648776-6.411013 0.98749-9.737782 1.036609-3.328815-0.049119-6.592139-0.387833-9.741875-1.036609v0.097214c-0.478907-0.090051-0.933255-0.045025-1.414209-0.150426-16.078187-3.545756-29.54285-15.924691-34.883485-31.507598a50.859341 50.859341 0 0 1-2.022053-7.866154c-2.882654-16.737196-15.84078-30.078039-31.66928-36.217877a190.467983 190.467983 0 0 1-9.309017-3.895726c-26.059516-11.759835-49.180096-28.734438-68.750827-50.465369-39.640836-44.132126-61.430094-104.513332-61.430094-170.096003v-174.972057c0-14.506389-5.380544-28.340465-14.471597-37.864376l-70.190618-93.588515-0.555656-58.597583 304.437688-0.293688 304.437687 0.293688-0.557702 58.598607zM461.808366 8.666636c11.710716-10.313903 26.688849-15.96767 42.1244-17.451464 2.680039-0.260943 5.372358-0.169869 8.068769-0.171915 2.692319 0.002047 5.383614-0.090051 8.064676 0.171915 15.435551 1.484817 30.413684 7.137561 42.126446 17.451464 7.961322 7.010671 13.95892 15.44476 18.102287 24.777313l58.290591-0.056282c-5.945409-24.721031-19.302625-47.229674-38.880519-64.521502-21.465894-19.046798-48.930409-29.909194-77.964676-32.016181v-0.00614c-3.251044-0.233314-6.426363-0.870834-9.714246-0.870834-0.008186 0-0.01535 0.004093-0.023536 0.004094s-0.019443-0.004093-0.027629-0.004094c-3.287883 0-6.463202 0.636496-9.714246 0.870834v0.00614c-29.03222 2.108011-56.497759 12.969383-77.964676 32.016181-19.576871 17.291828-32.93204 39.800471-38.880519 64.521502l58.290591 0.056282c4.145413-9.331529 10.139941-17.766642 18.102287-24.777313z"  horiz-adv-x="1024" />

    
    <glyph glyph-name="tuichu2" unicode="&#58908;" d="M511.771963-127.291077c-63.724308 0-125.558154 12.445538-183.768615 37.100308a469.464615 469.464615 0 0 0-150.134154 101.139692 471.118769 471.118769 0 0 0 59.392 717.351385 37.021538 37.021538 0 0 0 43.008-59.864616 403.692308 403.692308 0 0 1-121.304616-139.027692A391.798154 391.798154 0 0 1 113.435963 344.772923c0-106.338462 41.432615-206.375385 116.657231-281.6a395.736615 395.736615 0 0 1 281.678769-116.736c106.338462 0 206.454154 41.432615 281.757539 116.736a395.421538 395.421538 0 0 1 116.65723 281.6 391.483077 391.483077 0 0 1-45.528615 184.635077 403.298462 403.298462 0 0 1-121.304615 138.870154 36.864 36.864 0 0 0 43.008 59.943384 471.04 471.04 0 0 0 59.392-717.430153 471.04 471.04 0 0 0-333.981539-138.161231z m11.106462 512.236308a36.864 36.864 0 0 0-36.94277 36.864V858.978462a37.021538 37.021538 0 0 0 73.964308 0v-437.169231c0-20.48-16.541538-36.864-37.021538-36.864z"  horiz-adv-x="1024" />

    
    <glyph glyph-name="xiugaimima1" unicode="&#58886;" d="M807.286 502.035h-59.057v78.729c0 130.193-105.964 236.099-236.229 236.099s-236.229-105.906-236.229-236.099v-78.729h-59.057c-32.617 0-59.057-26.426-59.057-59.025l0-432.848c0-32.598 26.441-59.025 59.057-59.025h590.573c32.617 0 59.057 26.426 59.057 59.025l-0 432.849c0 32.598-26.44 59.024-59.057 59.024zM334.828 580.764c0 97.645 79.473 177.075 177.172 177.075s177.172-79.43 177.172-177.075v-78.729h-354.344v78.729zM807.286 10.162h-590.573v432.849h590.573l-0-432.849zM512 118.364c16.302 0 29.529 13.219 29.529 29.512v157.4c0 16.293-13.226 29.512-29.529 29.512s-29.529-13.219-29.529-29.512v-157.4c0-16.293 13.226-29.512 29.529-29.512z"  horiz-adv-x="1024" />

    
    <glyph glyph-name="daochu" unicode="&#59098;" d="M538.4 771.456c-2.75 2.588-6.453 4.175-10.527 4.175s-7.777-1.586-10.527-4.175L297.382 564.443a5.119 5.119 0 0 1 3.51-8.848h142.303v-210.41c0-3.932 1.5-7.863 4.5-10.861 3-3 6.93-4.5 10.86-4.5h138.608c3.931 0 7.862 1.5 10.86 4.5s4.5 6.93 4.5 10.86v210.41H754.83a5.116 5.116 0 0 1 4.759 3.234 5.117 5.117 0 0 1-1.25 5.615L538.4 771.456z m407.14-507.443L810.07 358.047h-84.664L867.42 243.123l-156.124 2.039c-4.52 0-11.038-4.354-13.092-8.006l-43.352-104.878H400.864l-43.35 104.878c-2.04 3.652-8.544 8.006-13.092 8.006H189.206L330.31 358.047h-84.664l-135.455-94.034c-21.165-12.677-33.871-41.891-28.18-64.96l25.108-137.755c5.691-23.056 30.88-41.906 55.96-41.906h729.56c25.066 0 50.268 18.85 55.973 41.906l25.08 137.755c5.705 23.069-6.973 52.283-28.154 64.96z"  horiz-adv-x="1024" />

    
    <glyph glyph-name="add" unicode="&#59104;" d="M512 64a32 32 0 0 1 32 32v256h256a32 32 0 0 1 0 64h-256V672a32 32 0 0 1-64 0v-256H224a32 32 0 0 1 0-64h256v-256a32 32 0 0 1 32-32"  horiz-adv-x="1024" />

    
    <glyph glyph-name="switch" unicode="&#59237;" d="M512 576c23.616 0 44.032 12.96 55.136 32 5.472 9.44 8.864 20.288 8.864 32a64 64 0 1 1-128 0c0-11.712 3.392-22.56 8.864-32 11.104-19.04 31.52-32 55.136-32M512 448c-23.616 0-44.032-12.96-55.136-32A63.584 63.584 0 0 1 448 384c0-11.712 3.392-22.56 8.864-32 11.104-19.04 31.52-32 55.136-32 23.616 0 44.032 12.96 55.136 32 5.472 9.44 8.864 20.288 8.864 32s-3.392 22.56-8.864 32c-11.104 19.04-31.52 32-55.136 32M512 192c-23.616 0-44.032-12.96-55.136-32A63.584 63.584 0 0 1 448 128a64 64 0 1 1 128 0c0 11.712-3.392 22.56-8.864 32-11.104 19.04-31.52 32-55.136 32"  horiz-adv-x="1024" />

    
    <glyph glyph-name="trash" unicode="&#59250;" d="M736 543.968L736.096 96h-0.128L288 96.032 288.032 544 736 543.968zM384 672h256v-64h-256V672z m448-64h-128V693.376C704 713.952 687.232 736 640.16 736h-256.32C336.768 736 320 713.952 320 693.376V608H192a32 32 0 1 1 0-64h32V96.032C224 60.704 252.704 32 288.032 32h447.936A64.064 64.064 0 0 1 800 96.032V544h32a32 32 0 1 1 0 64zM608 205.44a32 32 0 0 1 32 32V448a32 32 0 1 1-64 0v-210.56a32 32 0 0 1 32-32M416 205.44a32 32 0 0 1 32 32V448a32 32 0 1 1-64 0v-210.56a32 32 0 0 1 32-32"  horiz-adv-x="1024" />

    
    <glyph glyph-name="tuichu3" unicode="&#58947;" d="M704.3 766.1v-78.7c78-64.5 127.7-161.8 127.7-270.7 0-193.6-157.5-351.2-351.2-351.2S129.7 223.1 129.7 416.7c0 108.8 49.8 206.2 127.7 270.7v78.7C142.3 692.3 65.9 563.6 65.9 416.7c0-229.2 185.8-415 415-415s415 185.8 415 415c0 146.9-76.5 275.6-191.6 349.4zM448.9 831.7h63.8v-446.9h-63.8z"  horiz-adv-x="1024" />

    
    <glyph glyph-name="sixin1" unicode="&#58932;" d="M574.1 409.2c15.2 15.5 24.6 36.5 24.6 59.6 0 47.4-39.3 85.9-87.7 85.9-48.3 0-87.7-38.6-87.7-85.9 0-23.1 9.3-44 24.4-59.5-48.2-20.9-83.7-64.9-91.8-117.7-1.8-12 7.6-22.7 19.9-22.7 10 0 18.4 7.2 19.9 16.9 8.3 54.9 56.7 97.1 114.9 97.1s106.6-42.2 114.9-97.1c1.5-9.7 9.9-16.9 19.9-16.9 12.3 0 21.7 10.8 19.9 22.7-7.7 52.7-43.1 96.7-91.2 117.6z m-63 106.1c26.1 0 47.4-20.8 47.4-46.5 0-25.6-21.3-46.5-47.4-46.5-26.1 0-47.4 20.8-47.4 46.5s21.2 46.5 47.4 46.5zM841.7 704.2H183c-65.4 0-118.6-52.2-118.6-116.3v-407.2c0-64.2 53.2-116.3 118.6-116.3h658.7c65.4 0 118.6 52.2 118.6 116.3V587.9c0 64.1-53.2 116.3-118.6 116.3zM916 180.6c0-13-3.5-25.2-9.6-35.7L722 309.9c-9 8.1-23.1 7.5-31.3-1.4-8.3-8.9-7.6-22.6 1.4-30.7L874 115c-9.8-4.7-20.7-7.3-32.3-7.3H183c-11.4 0-22.2 2.5-31.8 7l181.5 162.5c9 8.1 9.7 21.8 1.4 30.7-8.3 8.9-22.3 9.5-31.3 1.4L118.5 144.4c-6.3 10.7-9.8 23-9.8 36.2V587.9c0 14.3 4.2 27.6 11.5 38.9L311.3 474c9.5-7.6 23.5-6.2 31.2 3.1 7.7 9.3 6.3 23-3.2 30.6L154.7 655.3c8.7 3.5 18.3 5.5 28.3 5.5h658.7c10.2 0 19.9-2 28.8-5.7l-185-147.8c-9.5-7.6-10.9-21.3-3.2-30.6s21.7-10.7 31.2-3.1l191.2 152.9c7.1-11.2 11.3-24.4 11.3-38.5v-407.4z"  horiz-adv-x="1024" />

    
    <glyph glyph-name="xiangmuguanli2" unicode="&#58982;" d="M848 776v-784H176V776h672m0 56H176c-30.9 0-56-25.1-56-56v-784c0-30.9 25.1-56 56-56h672c30.9 0 56 25.1 56 56V776c0 30.9-25.1 56-56 56zM624 776v-56H400v56h224m56 56H344v-112c0-30.9 25.1-56 56-56h224c30.9 0 56 25.1 56 56V832zM708 496H316c-15.5 0-28 12.5-28 28s12.5 28 28 28h392c15.5 0 28-12.5 28-28s-12.5-28-28-28zM708 328H316c-15.5 0-28 12.5-28 28s12.5 28 28 28h392c15.5 0 28-12.5 28-28s-12.5-28-28-28zM484 160H316c-15.5 0-28 12.5-28 28s12.5 28 28 28h168c15.5 0 28-12.5 28-28s-12.5-28-28-28z"  horiz-adv-x="1024" />

    
    <glyph glyph-name="caidan1" unicode="&#58962;" d="M0 704h1024v-109.653333H0V704z m0-274.176h1024v-109.653333H0v109.653333z m0-274.154667h1024v-109.653333H0v109.653333z"  horiz-adv-x="1024" />

    
    <glyph glyph-name="yifupifu" unicode="&#58920;" d="M1142.90176 733.622857l-182.857143 146.285714A73.142857 73.142857 0 0 1 914.330331 896H256.044617a73.142857 73.142857 0 0 1-45.714286-16.091429l-182.857142-146.285714A73.142857 73.142857 0 0 1 3.70176 653.531429l73.142857-219.428572a73.142857 73.142857 0 0 1 106.057143-40.228571V-54.857143a73.142857 73.142857 0 0 1 73.142857-73.142857h658.285714a73.142857 73.142857 0 0 1 73.142858 73.142857V393.874286a73.142857 73.142857 0 0 1 106.057142 40.228571l73.142858 219.428572a73.142857 73.142857 0 0 1-23.771429 80.091428zM722.330331 822.857143A149.577143 149.577143 0 0 0 585.187474 749.714286a149.577143 149.577143 0 0 0-137.142857 73.142857zM1024.044617 457.142857l-109.714286 73.142857v-585.142857H256.044617V530.285714l-109.714286-73.142857-73.142857 219.428572 182.857143 146.285714h152.868572A179.565714 179.565714 0 0 1 585.187474 713.142857a179.565714 179.565714 0 0 1 176.274286 109.714286H914.330331l182.857143-146.285714z"  horiz-adv-x="1170" />

    
    <glyph glyph-name="tingzhi" unicode="&#58952;" d="M512-64A448 448 0 1 0 512 832a448 448 0 0 0 0-896z m0 64A384 384 0 1 1 512 768a384 384 0 0 1 0-768zM352 544l320 0 0-320-320 0 0 320Z"  horiz-adv-x="1024" />

    
    <glyph glyph-name="navicon-wzgl" unicode="&#58977;" d="M487.424-78.84799999999996c-8.704 0-17.408 2.048-25.6 6.656C358.4-16.384000000000015 232.448-3.0720000000000027 87.04 12.799999999999955l-13.312 1.536c-33.28 3.072-58.368 30.72-58.368 64.512V619.52c0 35.328 29.184 65.024 65.024 66.048 163.84 2.56 306.688-26.624 424.448-87.552 21.504-10.752 35.328-33.792 35.328-57.856V-25.600000000000023c0-18.944-9.728-36.352-26.112-46.08-8.192-4.608-17.408-7.168-26.624-7.168zM100.864 634.3679999999999h-19.456c-8.192 0-14.848-6.656-14.848-14.848v-540.672c0-7.168 5.632-13.312 12.8-13.824l13.312-1.536c151.04-15.872 281.088-30.208 393.728-90.624h0.512c0.512-0.512 1.024-0.512 1.536 0 0.512 0.512 1.024 1.024 1.024 1.536V540.1600000000001c0 5.12-3.072 10.24-7.168 12.288-106.496 54.784-234.496 81.92-381.44 81.92zM544.256-77.31200000000001c-9.728 0-19.456 2.56-28.16 8.192-16.896 10.24-27.136 28.16-26.624 48.128V540.672c0 24.576 13.824 47.616 35.84 58.368 117.76 60.416 260.608 90.112 423.936 87.04 35.84-1.024 65.024-30.208 65.024-66.048v-540.672c0-33.792-25.088-61.44-58.88-65.024l-20.992-2.56c-141.312-15.36-263.168-29.184-364.032-82.944-8.192-4.096-17.408-6.144-26.112-6.144zM928.768 634.88c-146.432 0-274.432-27.648-380.416-81.92-4.608-2.56-7.68-7.168-7.68-12.8v-562.688c0-1.536 0.512-2.56 2.048-3.584 1.536-1.024 2.56-0.512 3.072 0h0.512c109.568 58.368 236.032 72.192 382.976 88.576l20.992 2.56c7.68 0.512 13.312 6.656 13.312 13.824V620.0319999999999c0 8.192-6.656 14.848-14.848 14.848h-19.968zM386.56 393.728c-3.072 0-6.656 0.512-9.728 2.048-67.584 27.136-136.704 40.96-204.288 40.96-14.336 0-25.6 11.264-25.6 25.6s11.264 25.6 25.6 25.6c74.24 0 149.504-14.848 223.744-45.056 13.312-5.12 19.456-19.968 14.336-33.28-4.096-9.728-13.824-15.872-24.064-15.872zM386.56 222.20799999999997c-3.072 0-6.656 0.512-9.728 2.048-67.584 27.136-136.704 40.96-204.288 40.96-14.336 0-25.6 11.264-25.6 25.6s11.264 25.6 25.6 25.6c74.24 0 149.504-14.848 223.744-45.056 13.312-5.12 19.456-19.968 14.336-33.28-4.096-9.728-13.824-15.872-24.064-15.872zM643.072 393.728c-10.24 0-19.968 6.144-23.552 15.872-5.12 13.312 1.024 28.16 14.336 33.28 73.728 29.696 148.992 45.056 223.744 45.056 14.336 0 25.6-11.264 25.6-25.6s-11.264-25.6-25.6-25.6c-68.096 0-136.704-13.824-204.288-40.96-3.584-1.536-7.168-2.048-10.24-2.048zM643.072 222.20799999999997c-10.24 0-19.968 6.144-23.552 15.872-5.12 13.312 1.024 28.16 14.336 33.28 73.728 29.696 148.992 45.056 223.744 45.056 14.336 0 25.6-11.264 25.6-25.6s-11.264-25.6-25.6-25.6c-68.096 0-136.704-13.824-204.288-40.96-3.584-1.536-7.168-2.048-10.24-2.048z"  horiz-adv-x="1024" />

    
    <glyph glyph-name="jiantouzuoxiao-left" unicode="&#58906;" d="M670.677 118.40700000000004l-267.05 264.231L668.95 650.784c11.776 11.775 11.734 30.91-0.092 42.734-11.826 11.827-30.959 11.868-42.729-2.93L343.1 407.56c-3.818-4.274-8.206-9.322-8.933-12.046-4.471-11.112-2.233-24.765 6.71-35.987L627.86 72.54399999999998c11.875-8.847 31.096-8.893 42.922 2.933 11.825 11.827 11.779 31.046-0.105 42.93z"  horiz-adv-x="1024" />

    
    <glyph glyph-name="yinle2" unicode="&#58903;" d="M846.1 367.6h-5.7c-5.3 0-9.7 4-10.2 9.3C812.8 537.1 676.8 662.4 512 662.4c-164.8 0-300.8-125.2-318.1-285.5-0.6-5.3-4.9-9.3-10.2-9.3H178c-27.6 0-49.9-22.4-49.9-49.9v-162c0-27.6 22.4-49.9 49.9-49.9h78.5c27.6 0 49.9 22.4 49.9 49.9v162c0 27.6-22.4 49.9-49.9 49.9h-1.2c-6.3 0-11.1 5.5-10.2 11.7C263.2 510.4 376 611.7 512 611.7s248.8-101.3 266.9-232.4c0.9-6.2-4-11.7-10.2-11.7h-1.2c-27.6 0-49.9-22.4-49.9-49.9v-162c0-27.6 22.4-49.9 49.9-49.9H846c27.6 0 49.9 22.4 49.9 49.9v162c0.1 27.5-22.3 49.9-49.8 49.9zM245.5 156.3h-56.6c-5.7 0-10.3 4.6-10.3 10.3V306.7c0 5.7 4.6 10.3 10.3 10.3h56.6c5.7 0 10.3-4.6 10.3-10.3v-140.1c0-5.7-4.6-10.3-10.3-10.3z m589.6 0h-56.6c-5.7 0-10.3 4.6-10.3 10.3V306.7c0 5.7 4.6 10.3 10.3 10.3h56.6c5.7 0 10.3-4.6 10.3-10.3v-140.1c0-5.7-4.6-10.3-10.3-10.3z"  horiz-adv-x="1024" />

    
    <glyph glyph-name="menuunfold" unicode="&#59089;" d="M31 709h964c16.5 0 30 13.5 30 30s-13.5 30-30 30H31c-16.5 0-30-13.5-30-30s13.5-30 30-30zM995 61H31c-16.5 0-30-13.5-30-30s13.5-30 30-30h964c16.5 0 30 13.5 30 30s-13.5 30-30 30zM817.8 207.2c11.7-11.7 30.8-11.7 42.5 0l155.9 155.6c11.7 11.7 11.7 30.8 0 42.4L860.3 560.8c-11.7 11.7-30.8 11.7-42.5 0s-11.7-30.8 0-42.4L952.5 384 817.8 249.7c-11.7-11.7-11.7-30.8 0-42.5zM31 355h707c16.5 0 30 13.5 30 30s-13.5 30-30 30H31c-16.5 0-30-13.5-30-30s13.5-30 30-30z"  horiz-adv-x="1025" />

    
    <glyph glyph-name="meunfold" unicode="&#59090;" d="M31 709h964c16.5 0 30 13.5 30 30s-13.5 30-30 30H31c-16.5 0-30-13.5-30-30s13.5-30 30-30zM995 61H31c-16.5 0-30-13.5-30-30s13.5-30 30-30h964c16.5 0 30 13.5 30 30s-13.5 30-30 30zM208.2 561.8c-11.7 11.7-30.8 11.7-42.5 0L9.8 406.2c-11.7-11.7-11.7-30.8 0-42.4l155.9-155.6c11.7-11.7 30.8-11.7 42.5 0s11.7 30.8 0 42.4L73.5 385l134.6 134.4c11.8 11.6 11.8 30.7 0.1 42.4zM995 415H288c-16.5 0-30-13.5-30-30s13.5-30 30-30h707c16.5 0 30 13.5 30 30s-13.5 30-30 30z"  horiz-adv-x="1025" />

    
    <glyph glyph-name="yonghuguanli1" unicode="&#58884;" d="M749.4 519.8c0 150.2-120.1 270.3-270.3 270.3S208.8 669.9 208.8 519.8c0-102.1 54.1-189.2 138.2-234.3-114.1-45.1-201.2-144.2-225.3-270.3-3-15 6-33 24-36h6c15 0 27 9 30 24 27 141.2 150.2 243.3 294.3 246.3h6c144.2-0.1 267.4 123.1 267.4 270.3z m-480.6 0C268.8 636.9 361.9 730 479 730s210.2-93.1 210.2-210.2c0-114.1-93.1-207.2-207.2-210.3h-9c-114.1 6-204.2 99.1-204.2 210.3z m417.5-270.4c0-18 12-30 30-30h150.2c18 0 30 12 30 30s-12 30-30 30H716.4c-15.1 0.1-30.1-11.9-30.1-30z m180.2-87.1H626.2c-18 0-30-12-30-30s12-30 30-30h240.3c18 0 30 12 30 30 0.1 18-11.9 30-30 30z m0-120.1H629.3c-18 0-30-12-30-30s12-30 30-30h237.3c18 0 30 12 30 30s-15.1 30-30.1 30z m0 0"  horiz-adv-x="1024" />

    
    <glyph glyph-name="icon_dianzan-xian" unicode="&#58954;" d="M1014.434909 496.523636C1001.984 510.836364 984.017455 523.636364 965.166545 523.636364H643.048727l-1.396363-2.606546c21.922909 41.867636 34.071273 91.997091 34.071272 148.642909 0 75.776-21.271273 145.454545-56.878545 186.670546a89.134545 89.134545 0 0 1-18.618182 18.013091 85.178182 85.178182 0 0 1-50.850909 16.151272c-20.340364 0-39.470545-7.191273-55.063273-20.107636-3.584-2.932364-5.864727-6.213818-8.750545-9.751273-1.768727-2.001455-1.861818-4.212364-3.351273-6.330182A81.221818 81.221818 0 0 1 465.454545 804.258909v-2.839273c0-11.287273-4.002909-21.504-6.353454-32.558545-32.814545-112.034909-121.949091-198.679273-165.003636-245.224727H85.224727C47.080727 523.636364 0 483.048727 0 444.904727v-497.221818C0-90.484364 47.080727-128 85.224727-128h801.047273c33.885091 0 63.325091 29.114182 68.538182 62.580364l75.403636 504.622545c2.676364 19.316364-3.072 42.728727-15.778909 57.320727zM69.818182-52.014545V445.230545c0 0.605091 6.190545 1.000727 6.4 1.466182l170.821818-1.466182-5.864727-498.711272L69.818182-52.061091v0.046546zM535.272727 798.906182v3.793454c0 4.701091-1.722182 9.239273 1.047273 12.567273l0.256 3.584a20.666182 20.666182 0 0 0 23.552 1.140364c1.768727-1.093818 3.281455-2.909091 6.120727-6.190546 5.306182-6.074182 9.984-12.730182 13.940364-19.805091 9.285818-16.430545 16.407273-36.049455 21.201454-58.344727 4.491636-21.248 6.888727-44.101818 6.888728-66.071273 0-47.336727-10.24-92.765091-28.113455-124.741818a101.003636 101.003636 0 0 0-15.755636-21.573818c-7.912727-8.285091-12.288-19.176727-12.288-30.836364 0-24.948364 20.270545-45.032727 45.195636-45.032727l365.195637-2.885818L885.969455-58.181818H321.931636l1.186909 504.622545a773.422545 773.422545 0 0 1 64.186182 62.999273c43.776 48.384 103.354182 125.416727 130.304 214.248727 7.68 24.925091 17.664 50.664727 17.664 75.217455z"  horiz-adv-x="1030" />

    
    <glyph glyph-name="icon_dianzan-mian" unicode="&#58957;" d="M82.195537 523.653288C44.05327 523.653288 0 487.209854 0 449.044316v-497.199218C0-86.297168 44.05327-127.953457 82.195537-127.953457H209.445025V523.653288H82.195537zM1011.340212 498.612972C998.91314 512.901777 980.947411 523.653288 962.097359 523.653288H639.97091l-1.3963-0.535248c21.921913 41.889005 34.069724 93.016863 34.069724 149.683378 0 75.772556-21.270306 145.959911-56.87596 187.197309a90.759511 90.759511 0 0 1-18.617335 18.268261 85.31394 85.31394 0 0 1-50.87187 16.290168 85.639744 85.639744 0 0 1-55.06077-20.060179c-3.583837-2.93223-5.864461-6.166992-8.750148-9.704286-1.768647-2.001364-0.349075-4.212172-1.838461-6.306622-10.681696-14.07936-15.1964-31.114222-15.196401-50.103905v-2.839143c0-11.28676-5.515386-23.574201-7.865824-34.604973C424.731239 658.908231 334.111359 570.196627 291.05877 523.653288H279.260034v-651.606745h603.969637c33.860279 0 63.322213 31.184037 68.511795 64.648698l75.400209 504.599609c2.65297 19.315486-3.07186 42.726785-15.801463 57.318122z"  horiz-adv-x="1027" />

    
    <glyph glyph-name="gongneng" unicode="&#61153;" d="M431.79 723A20.24 20.24 0 0 0 452 702.79v-223.58A20.24 20.24 0 0 0 431.79 459H208.21A20.24 20.24 0 0 0 188 479.21V702.79A20.24 20.24 0 0 0 208.21 723h223.58m0 60H208.21A80.21 80.21 0 0 1 128 702.79v-223.58A80.21 80.21 0 0 1 208.21 399h223.58A80.21 80.21 0 0 1 512 479.21V702.79A80.21 80.21 0 0 1 431.79 783zM755.5 749.8a20.12 20.12 0 0 0 14.29-5.92l129.33-129.32a20.22 20.22 0 0 0 0-28.59L769.79 456.65a20.21 20.21 0 0 0-28.58 0L611.88 586a20.22 20.22 0 0 0 0 28.59l129.33 129.29a20.12 20.12 0 0 0 14.29 5.92m0 60a80 80 0 0 1-56.72-23.49L569.46 657a80.21 80.21 0 0 1 0-113.44l129.32-129.34a80.22 80.22 0 0 1 113.44 0l129.32 129.32a80.21 80.21 0 0 1 0 113.44L812.22 786.31A80 80 0 0 1 755.5 809.8zM431.79 309A20.24 20.24 0 0 0 452 288.79v-223.58A20.24 20.24 0 0 0 431.79 45H208.21A20.24 20.24 0 0 0 188 65.21V288.79A20.24 20.24 0 0 0 208.21 309h223.58m0 60H208.21A80.21 80.21 0 0 1 128 288.79v-223.58A80.21 80.21 0 0 1 208.21-15h223.58A80.21 80.21 0 0 1 512 65.21V288.79A80.21 80.21 0 0 1 431.79 369zM847.79 309A20.24 20.24 0 0 0 868 288.79v-223.58A20.24 20.24 0 0 0 847.79 45H624.21A20.24 20.24 0 0 0 604 65.21V288.79A20.24 20.24 0 0 0 624.21 309h223.58m0 60H624.21A80.21 80.21 0 0 1 544 288.79v-223.58A80.21 80.21 0 0 1 624.21-15h223.58A80.21 80.21 0 0 1 928 65.21V288.79A80.21 80.21 0 0 1 847.79 369z"  horiz-adv-x="1024" />

    
    <glyph glyph-name="tingzhi1" unicode="&#59036;" d="M512.8 892C233.6 892 6.4 664.8 6.4 385.6s227.2-506.4 506.4-506.4 506.4 227.2 506.4 506.4S792 892 512.8 892z m0-972.8c-257.6 0-466.4 209.6-466.4 466.4C46.4 643.2 256 852 512.8 852c257.6 0 466.4-209.6 466.4-466.4 0-256.8-209.6-466.4-466.4-466.4zM660.8 568h-296c-18.4 0-33.6-15.2-33.6-33.6v-296c0-18.4 15.2-33.6 33.6-33.6h296c18.4 0 33.6 15.2 33.6 33.6v296c0 18.4-15.2 33.6-33.6 33.6z"  horiz-adv-x="1024" />

    
    <glyph glyph-name="jichushuju_xiangmuguanli" unicode="&#58924;" d="M239.9 403.4m-42 0a42 42 0 1 1 84 0 42 42 0 1 1-84 0ZM826 382.5H378.5c-11.6 0-21 9.4-21 21s9.4 21 21 21H826c11.6 0 21-9.4 21-21s-9.4-21-21-21zM239.9 263.6m-42 0a42 42 0 1 1 84 0 42 42 0 1 1-84 0ZM826 242.6H378.5c-11.6 0-21 9.4-21 21s9.4 21 21 21H826c11.6 0 21-9.4 21-21s-9.4-21-21-21zM882.6 661.1H531.2l-29 46.3c-6.9 11.7-35 54.7-77.8 54.7h-304c-30.9 0-55.9-25-55.9-55.9v-623.3c0-42.4 34.5-76.9 76.9-76.9h741.2c42.4 0 76.9 34.5 76.9 76.9V584.2c0 42.4-34.5 76.9-76.9 76.9z m34.9-578.2c0-19.3-15.7-35-35-35H141.4c-19.3 0-35 15.7-35 35V584.2c0 19.3 15.7 35 35 35h741.2c19.3 0 35-15.7 35-35v-501.3z"  horiz-adv-x="1024" />

    
    <glyph glyph-name="bianji" unicode="&#58880;" d="M562.5 722.6l113.2-81.4-283-404.3h-0.2l-4.7-2.1L261.2 179l15.4 130.4 0.4 3.5v1c0.3 0.7 0.6 1.6 0.9 2.2l284.6 406.5m-1.2 61.4c-17.7 0-35.1-7.9-45.2-23.1L227.9 349.2c-5.5-8.2-11-22-11-32.9l-17.3-146.5c0-32.2 27-54.8 55.1-54.8 5.4 0 10.9 0.8 16.2 2.6l141 62.1c11 2.7 22 11 27.4 19.2l288.2 411.7c16.5 24.7 11 57.6-13.7 76.9l-121 87c-9.3 6.4-20.4 9.5-31.5 9.5zM200 44h640v-60H200z"  horiz-adv-x="1024" />

    
    <glyph glyph-name="xinzengmian" unicode="&#58911;" d="M511.3 829c-245.8 0-445-199.2-445-445s199.2-445 445-445 445 199.2 445 445S757 829 511.3 829z m300-445c0-17.7-14.3-32-32-32h-236v-236c0-17.7-14.3-32-32-32s-32 14.3-32 32V352h-236c-17.7 0-32 14.3-32 32s14.3 32 32 32h236V652c0 17.7 14.3 32 32 32s32-14.3 32-32v-236h236c17.7 0 32-14.3 32-32z"  horiz-adv-x="1024" />

    
    <glyph glyph-name="quanpingsuoxiao" unicode="&#58922;" d="M366.2 714.2c-1 8-10.8 11.4-16.5 5.7l-53.1-53.1L134.2 829c-3.8 3.8-10 3.8-13.7 0L69 777.7c-3.8-3.8-3.8-10 0-13.7l162.4-162.4-53.3-53.3c-5.7-5.7-2.3-15.5 5.7-16.5l194.6-23c6.2-0.7 11.5 4.5 10.8 10.8l-23 194.6z m12.3-453.3l-194.7-23c-8-1-11.4-10.8-5.7-16.5l53.3-53.3L69 5.9c-3.8-3.8-3.8-10 0-13.7l51.5-51.4c3.8-3.8 10-3.8 13.7 0l162.4 162.3 53.1-53.1c5.7-5.7 15.5-2.3 16.5 5.7l23 194.4c0.7 6.3-4.5 11.5-10.7 10.8z m269.4 248l194.7 23c8 1 11.4 10.8 5.7 16.5L795 601.6l162.4 162.3c3.8 3.8 3.8 10 0 13.7L905.9 829c-3.8 3.8-10 3.8-13.7 0L729.7 666.8l-53.1 53.1c-5.7 5.7-15.6 2.3-16.5-5.7l-23-194.5c-0.6-6.3 4.6-11.5 10.8-10.8zM795 168.2l53.3 53.3c5.7 5.7 2.3 15.5-5.7 16.5L648 261c-6.2 0.7-11.5-4.5-10.8-10.8l23-194.6c1-8 10.8-11.4 16.5-5.7l53.1 53.1 162.4-162.3c3.8-3.8 10-3.8 13.7 0l51.5 51.4c3.8 3.8 3.8 10 0 13.7L795 168.2z m0 0"  horiz-adv-x="1024" />

    
    <glyph glyph-name="quanpingxianshi" unicode="&#58923;" d="M229.8 733l55.7 55.7c6 6 2.4 16.2-6 17.2l-203.2 24c-6.5 0.8-12-4.7-11.3-11.3l24-203.2c1-8.4 11.3-11.9 17.2-6l55.4 55.4 169.6-169.4c3.9-3.9 10.4-3.9 14.3 0l53.8 53.6c3.9 3.9 3.9 10.4 0 14.3L229.8 733z m447.3-237.6c3.9-3.9 10.4-3.9 14.3 0L861 664.9l55.4-55.4c6-6 16.2-2.4 17.2 6l24 203c0.8 6.5-4.7 12-11.3 11.3l-203.2-24c-8.4-1-11.9-11.3-6-17.2l55.7-55.7-169.5-169.4c-3.9-3.9-3.9-10.4 0-14.3l53.8-53.8z m256.6-343.9c-1 8.4-11.3 11.9-17.2 6L861 102 691.4 271.5c-3.9 3.9-10.4 3.9-14.3 0l-53.8-53.6c-3.9-3.9-3.9-10.4 0-14.3L792.9 34l-55.7-55.7c-6-6-2.4-16.2 6-17.2l203.2-24c6.5-0.8 12 4.7 11.3 11.3l-24 203.1z m-588.1 120c-3.9 3.9-10.4 3.9-14.3 0L161.7 102l-55.4 55.4c-6 6-16.2 2.4-17.2-6l-24-203c-0.8-6.5 4.7-12.1 11.3-11.3l203.2 24c8.4 1 11.9 11.3 6 17.2l-55.7 55.5 169.6 169.4c3.9 3.9 3.9 10.4 0 14.3l-53.9 54z m0 0"  horiz-adv-x="1024" />

    
    </font>
</defs>
</svg>
